<?xml version="1.0" standalone="no"?>
<!DOCTYPE svg PUBLIC "-//W3C//DTD SVG 1.1//EN" "http://www.w3.org/Graphics/SVG/1.1/DTD/svg11.dtd" >
<!--
2013-9-30: Created.
-->
<svg>
<metadata>
Created by iconfont
</metadata>
<defs>

<font id="iconfont" horiz-adv-x="1024" >
  <font-face
    font-family="iconfont"
    font-weight="500"
    font-stretch="normal"
    units-per-em="1024"
    ascent="896"
    descent="-128"
  />
    <missing-glyph />
    
    <glyph glyph-name="gouxuan1" unicode="&#58895;" d="M510.194376 831.24416c-246.595304 0-447.24416-200.649879-447.24416-447.245184 0-246.629073 200.614064-447.243137 447.24416-447.243137s447.24416 200.614064 447.24416 447.243137C957.438537 630.594281 756.82345 831.24416 510.194376 831.24416L510.194376 831.24416zM726.02091 457.77219 469.091236 198.048891c-0.064468-0.064468-0.191358-0.098237-0.260943-0.195451-0.092098-0.064468-0.092098-0.190335-0.190335-0.25378-2.051729-1.988284-4.587482-3.208065-6.962575-4.558829-1.183965-0.669242-2.148943-1.698688-3.40147-2.178619-3.848655-1.543146-7.92346-2.344395-12.002358-2.344395-4.107551 0-8.244778 0.801249-12.127202 2.408863-1.283226 0.543376-2.311649 1.635243-3.53143 2.310625-2.37407 1.346671-4.842285 2.536776-6.89913 4.552689-0.062422 0.064468-0.097214 0.195451-0.161682 0.25992-0.062422 0.094144-0.190335 0.094144-0.254803 0.192382L296.937364 328.102922c-12.353352 12.707416-12.06478 33.015951 0.641613 45.37135 12.70537 12.322653 32.985252 12.097526 45.373397-0.64366l103.546308-106.400309 233.92268 236.489132c12.45159 12.608156 32.79594 12.735046 45.37442 0.254803C738.33947 490.693997 738.467383 470.379323 726.02091 457.77219L726.02091 457.77219zM726.02091 457.77219"  horiz-adv-x="1024" />

    
    <glyph glyph-name="htmal5icon28" unicode="&#58953;" d="M547.111682 505.772414l-76.406181 0 0 76.405157 76.406181 0L547.111682 505.772414zM547.111682 200.150762l-76.406181 0 0 229.216495 76.406181 0L547.111682 200.150762zM508.909615 773.190977c-210.115462 0-382.027833-171.912371-382.027833-382.02681s171.912371-382.02681 382.027833-382.02681c210.114438 0 382.02681 171.912371 382.02681 382.02681S719.024054 773.190977 508.909615 773.190977z"  horiz-adv-x="1024" />

    
    <glyph glyph-name="pay-order" unicode="&#58944;" d="M511.5 832.6c-247.4 0-448-200.6-448-448s200.6-448 448-448 448 200.6 448 448c0 247.5-200.6 448-448 448zM636 318.9c17.7 0 32-14.3 32-32s-14.3-32-32-32h-97.1v-95.1c0-17.7-14.3-32-32-32-17.7 0-32 14.3-32 32v95.1h-94.8c-17.7 0-32 14.3-32 32s14.3 32 32 32h94.8v64h-94.8c-17.7 0-32 14.3-32 32s14.3 32 32 32h94.8v19.8l-118.3 118.6c-12.5 12.5-11.9 32.7 0.6 45.2s32.7 12.6 45.2 0.1l107.6-107.3 101.6 106.8c12.3 12.8 32.3 13.3 45.1 1.1 12.8-12.2 13-32.4 0.8-45.2l-118.6-123.9v-15.2h97.1c17.7 0 32-14.3 32-32s-14.3-32-32-32h-97.1v-64h97.1z"  horiz-adv-x="1024" />

    
    <glyph glyph-name="jieshu" unicode="&#58945;" d="M212.992 369.664 212.992 369.664 212.992 369.664 215.04 369.664 212.992 369.664ZM817.152 693.248 817.152 693.248C737.28 773.12 628.736 820.224 509.952 820.224c-118.784 0-229.376-49.152-307.2-126.976l0 0c-77.824-77.824-126.976-186.368-126.976-307.2 0-118.784 49.152-229.376 126.976-307.2 77.824-79.872 188.416-126.976 307.2-126.976 120.832 0 229.376 49.152 307.2 126.976 79.872 77.824 126.976 186.368 126.976 307.2C946.176 506.88 897.024 615.424 817.152 693.248zM770.048 125.952c-65.536-65.536-157.696-108.544-260.096-108.544-102.4 0-194.56 40.96-260.096 108.544C184.32 191.488 141.312 283.648 141.312 386.048s40.96 194.56 108.544 260.096C317.44 711.68 409.6 754.688 509.952 754.688c100.352 0 192.512-40.96 258.048-106.496l2.048-2.048c65.536-65.536 108.544-157.696 108.544-260.096S837.632 191.488 770.048 125.952zM724.992 599.04 724.992 599.04 296.96 599.04 296.96 171.008 724.992 171.008 724.992 599.04Z"  horiz-adv-x="1024" />

    
    <glyph glyph-name="xinzeng" unicode="&#58957;" d="M933.366 357.85h-842.181c-14.289 0-25.874 11.585-25.874 25.874s11.585 25.874 25.874 25.874h842.181c14.29 0 25.874-11.585 25.874-25.874s-11.584-25.874-25.874-25.874zM512.276-63.24c-14.29 0-25.874 11.584-25.874 25.874v842.181c0 14.289 11.584 25.874 25.874 25.874s25.874-11.585 25.874-25.874v-842.181c0.001-14.29-11.584-25.874-25.874-25.874z"  horiz-adv-x="1024" />

    
    <glyph glyph-name="iconfontwenhao1" unicode="&#58891;" d="M512.01357 896c282.829128 0 512.019284-229.201583 512.019284-511.992144 0-282.780562-229.184442-512.007856-512.019284-512.007856C229.240151-128 0 101.223009 0 384.007856 0 666.775562 229.240151 896 512.01357 896L512.01357 896zM545.850219 207.658181c0.56423 32.283945 2.818292 55.640203 6.717906 69.998781 3.922469 14.382861 9.870451 27.078746 18.001074 38.154792 8.0792 11.051762 25.281782 28.284341 51.590604 51.590604 39.17612 34.689421 65.540651 64.179357 78.976463 88.411243 13.485807 24.2276 20.205142 50.714977 20.205142 79.40642 0 49.666509-19.128105 91.972319-57.438596 126.974566-38.304777 34.996534-89.589697 52.511941-153.901899 52.511941-60.7197 0-109.564862-16.309813-146.514059-48.896585-36.872062-32.613912-59.151284-79.590688-66.567692-140.896044l82.956069-9.870451c7.180717 45.765467 22.334931 79.40642 45.356936 100.972856 23.027719 21.509298 51.742018 32.283945 86.158609 32.283945 35.537908 0 65.66921-11.901678 90.208208-35.665039 24.511858-23.770503 36.76493-51.38491 36.76493-82.798942 0-17.33114-4.179586-33.356696-12.588753-47.998103-8.307749-14.691402-26.537371-34.355169-54.5146-58.99987C543.339039 398.175025 523.926676 379.3826 513.157742 366.50959 498.489195 348.865623 487.875961 331.351643 481.313754 313.991934c-8.977682-23.022005-13.464381-50.407864-13.464381-82.094726 0-5.390895 0.128559-13.492949 0.435671-24.261883L545.850219 207.658181 545.850219 207.658181zM555.313567 45.675654l0 92.000887L463.329821 137.676542l0-92.000887L555.313567 45.675654 555.313567 45.675654zM555.313567 45.675654"  horiz-adv-x="1025" />

    
    <glyph glyph-name="shanchuguanbicha2" unicode="&#59403;" d="M544 832C279.04 832 64 616.96 64 352S279.04-128 544-128c264.96 0 480 215.04 480 480S808.96 832 544 832zM759.04 137.6c-12.8-12.8-33.28-12.8-45.44 0L542.08 310.4l-174.08-172.16c-12.8-12.8-33.28-12.8-46.08 0-12.8 12.8-12.8 33.28 0 45.44l174.72 172.8L331.52 521.6c-12.8 12.8-12.8 33.28 0 45.44 12.8 12.8 33.28 12.8 45.44 0l165.12-165.76 167.68 165.76c12.8 12.8 33.28 12.8 46.08 0 12.8-12.8 12.8-33.28 0-45.44l-168.32-166.4 170.88-172.16C771.2 170.88 771.2 150.4 759.04 137.6z"  horiz-adv-x="1024" />

    
    <glyph glyph-name="jiantou" unicode="&#59045;" d="M629.944 866.53c5.795 0 11.674-1.761 16.753-5.366 13.025-9.277 16.056-27.341 6.779-40.367l-297.206-417.382 297.226-417.403c9.277-13.025 6.246-31.089-6.779-40.367-13.066-9.236-31.089-6.226-40.367 6.779l-309.166 434.176c-7.148 10.056-7.148 23.511 0 33.588l309.166 434.176c5.652 7.926 14.561 12.165 23.593 12.165z"  horiz-adv-x="1024" />

    
    <glyph glyph-name="xiugaiziliao" unicode="&#59360;" d="M839.75777 596.689517l-166.795243 166.795243c-5.62806 5.62806-13.098031 8.697911-20.977316 8.697911-7.879285 0-15.349256-3.069851-20.977316-8.697911L177.181573 309.863096c-4.40012-3.888478-7.674628-9.311882-8.80024-15.553912l-40.317378-205.987009c-1.637254-8.902568 1.125612-18.009793 7.469971-24.45648 5.218747-5.321075 12.279404-8.18627 19.647047-8.18627 1.534926 0 3.172179 0.102328 4.707105 0.409313l208.033576 35.917258c6.139702 0.61397 12.177076 3.274508 16.884181 7.981613l454.849605 454.849605c5.62806 5.62806 8.697911 13.098031 8.697911 20.977316S845.38583 591.061457 839.75777 596.689517zM352.060757 145.216748l-162.395123-28.037973 31.41481 158.301989 319.469172 319.469172L671.120616 464.276606 352.060757 145.216748zM710.210053 503.366044 579.536724 634.039372l72.346158 72.346158 130.673329-130.673329L710.210053 503.366044zM797.291496-23.318077 154.976317-23.318077c-15.246927 0-27.62866 12.381733-27.62866 27.62866s12.381733 27.62866 27.62866 27.62866l642.417508 0c15.246927 0 27.62866-12.381733 27.62866-27.62866S812.538423-23.318077 797.291496-23.318077z"  horiz-adv-x="1024" />

    
    <glyph glyph-name="right" unicode="&#58900;" d="M317.236 64.633l338.493 334.033-338.493 334.033 2.688 2.665c-1.737 2.856-2.962 5.997-2.962 9.566 0 10.636 8.709 19.227 19.488 19.227 3.629 0 6.805-1.214 9.685-2.903l2.701 2.665 357.709-353.020-2.689-2.665c1.737-2.856 2.963-5.997 2.963-9.566 0-3.546-1.226-6.71-2.939-9.566l2.689-2.641-357.732-353.021-2.701 2.641c-2.88-1.689-6.056-2.903-9.685-2.903-10.778 0-19.488 8.614-19.488 19.251 0 3.568 1.226 6.71 2.939 9.541l-2.666 2.664zM317.236 64.633z"  horiz-adv-x="1024" />

    
    <glyph glyph-name="yuyue1" unicode="&#58916;" d="M874.182656 746.080256C777.459712 842.743808 648.906752 896 512.098304 896 375.339008 896 246.777856 842.743808 150.09792 746.070016 53.379072 649.363456 0.116736 520.777728 0.116736 383.997952c-0.024576-136.798208 53.200896-265.35936 149.901312-362.119168C246.687744-74.74176 375.261184-128 512.008192-128c136.808448 0 265.426944 53.295104 362.174464 149.981184C1073.768448 221.58336 1073.79712 546.394112 874.182656 746.080256zM752.982016 200.275968c-11.778048-20.39808-33.880064-27.387904-54.272-15.618048l-176.003072 106.668032c-5.931008 3.418112-15.65696 8.237056-19.2 13.568C490.708992 312.233984 471.04 325.502976 471.04 341.32992L471.04 639.995904c0 23.554048 19.113984 42.67008 42.661888 42.67008 23.554048 0 42.672128-19.113984 42.672128-42.67008l0-279.12192 176.979968-102.356992C753.793024 246.740992 764.758016 220.674048 752.982016 200.275968z"  horiz-adv-x="1024" />

    
    <glyph glyph-name="dingdan1" unicode="&#58948;" d="M537.429 590.474c53.437 0 96.754 44.64 96.754 99.73 0 30.991-13.709 58.678-35.23 76.978 1.841-6.278 3.14-12.808 3.14-19.712 0-37.644-29.596-68.146-66.104-68.146-36.517 0-66.115 30.502-66.115 68.146 0 5.515 0.8 10.802 2.01 15.929-19.132-18.219-31.203-44.22-31.203-73.194C440.682 635.114 483.999 590.474 537.429 590.474zM534.349 717.618c35.607 0 64.472 29.749 64.472 66.46 0 36.699-28.865 66.448-64.472 66.448-35.608 0-64.474-29.749-64.474-66.448C469.875 747.367 498.74 717.618 534.349 717.618zM78.809 121.594l155.81-62.177c-12.567 25.91-62.832 417.07-62.832 417.07L78.809 121.594zM712.094-83.064l10.061 152.839-349.316-36.268L712.094-83.064zM817.639 758.851l-169.355-25.76c10.194-18.833 16.055-40.505 16.055-63.613 0-72.249-56.807-130.824-126.908-130.824-70.084 0-126.901 58.576-126.901 130.824 0 9.582 1.066 18.901 2.95 27.904l-209.025-31.788c7.536-202.06 98.011-603.591 98.011-603.591l650.886 113.984C908.113 222.623 817.639 758.851 817.639 758.851zM327.385 439.709l276.938 41.051 8.23-30.819-276.923-41.063L327.385 439.709zM386.848 206.045l-10.06 35.15 340.838 49.995 10.07-35.149L386.848 206.045zM366.201 307.267l-13.441 34.878 439.032 59.52 13.447-34.875L366.201 307.267z"  horiz-adv-x="1024" />

    
    <glyph glyph-name="quan" unicode="&#59056;" d="M815.258829 842.814062 202.939594 842.814062c-85.401669 0-154.637673-69.232392-154.637673-154.634061l0-610.263757c0-85.405281 69.239617-154.637673 154.637673-154.637673l612.319235 0c85.405281 0 154.641286 69.232392 154.641286 154.637673L969.900115 688.180001C969.896502 773.58167 900.660498 842.814062 815.258829 842.814062L815.258829 842.814062zM227.085136 443.874369l168.802046 0c16.2921 21.342289 30.261401 44.039243 41.915129 68.098086L252.115725 511.972455 252.115725 551.557561l203.138278 0c14.355832 36.861327 26.190182 77.215882 35.506662 121.067278l46.56795-9.890858c-10.476073-39.971637-21.736045-77.028035-33.758242-111.172808L762.585857 551.561173l0-39.585106-274.151602 0c-10.468848-23.6687-23.087097-46.376491-37.82946-68.098086l341.671698 0 0-39.581493-158.322361 0c42.294435-45.791276 97.394966-75.669758 165.308818-89.642672-10.869829-13.969301-21.537361-28.711665-32.013434-44.237927-33.371711 11.252747-63.640337 25.807264-90.805877 43.659937-5.429496-46.177807-10.671145-88.085711-15.714109-125.727324-8.149662-53.157039-38.223216-79.549518-90.224275-79.159374-17.072386 0-48.887136 0.386531-95.455086 1.166818-2.716554 15.519038-6.794998 31.424606-12.224493 47.723931 34.534916-2.712942 65.963135-4.074831 94.295493-4.074831 34.14116 0 53.550795 13.965689 58.207228 41.911516 3.493228 21.732433 7.369375 51.809599 11.639278 90.224275l-173.454867 0c-7.372988-52.004671-22.895638-91.000949-46.560725-116.999672-25.615804-29.491951-72.761745-54.714-141.441434-75.662533-9.31648 16.685855-17.852673 30.850228-25.612192 42.489507 64.03048 16.299324 107.878264 38.028145 131.550576 65.190073 18.622123 20.55839 30.647932 48.890748 36.084652 84.982626L327.207493 286.140836l0 30.268626c-24.445374-18.242817-50.834241-35.315203-79.159374-51.224384-8.153275 13.189015-17.852673 26.193795-29.10542 38.999891 56.650267 27.544847 104.189963 60.916558 142.611864 100.11152L227.085136 404.296488 227.085136 443.874369zM296.353652 637.114564l33.176639 26.775397c27.945828-25.998723 52.976417-51.220772 75.091768-75.666146l-37.255083-30.846616C345.638156 583.762454 321.965844 610.339167 296.353652 637.114564zM338.843159 325.711492l320.13795 0c-29.495564 21.72882-55.100531 47.92984-76.832964 78.581384l-161.815589 0C397.050387 375.960517 369.888459 349.770335 338.843159 325.711492zM604.263496 580.074154c25.995111 26.775397 48.699289 54.909072 68.101699 84.401023l40.166708-25.030589c-22.122576-29.491951-46.56795-58.015769-73.343348-85.564228L604.263496 580.074154z"  horiz-adv-x="1024" />

    
    <glyph glyph-name="wo" unicode="&#58979;" d="M717.664 283.805c-52.734-47.461-121.289-79.102-200.391-79.102s-147.656 31.641-205.664 79.102c-131.836-68.555-221.484-158.203-221.484-321.68l843.75 0c0 163.477-89.648 247.852-216.211 321.68zM512 267.984c131.836 0 237.305 110.742 237.305 242.578s-105.469 242.578-237.305 242.578-237.305-110.742-237.305-242.578c0-137.109 110.742-242.578 237.305-242.578z"  horiz-adv-x="1024" />

    
    <glyph glyph-name="xiaofeijilu" unicode="&#58966;" d="M848.540849 263.462716l170.407088 132.686998-65.054645 83.552951 42.217521 42.217521L622.3779 895.653099 5.051039 278.326239l192.179974-192.179974 0-82.898035 0.074701 0c3.778046-85.948511 165.794024-130.901329 325.853439-130.901329s322.075393 44.952818 325.853439 130.901329l0.074701 0L849.087295 250.738927l-0.118704 0c0.078795 1.344624 0.118704 2.699482 0.118704 4.064572C849.087295 257.737318 848.90003 260.623042 848.540849 263.462716zM786.728038 254.804523c0-21.420869-89.673345-71.616084-263.567861-71.616084s-263.567861 50.195216-263.567861 71.616084c0 21.420869 89.673345 71.616084 263.567861 71.616084S786.728038 276.225391 786.728038 254.804523zM931.437861 407.049972l-115.405403-89.86675c-4.334725 3.654226-9.045003 7.172353-14.104229 10.552334l107.534132 107.534132L931.437861 407.049972zM622.3779 807.472757l285.552571-285.552571L742.391251 356.380966c-60.7015 21.440311-140.204206 32.399921-219.232097 32.399921-161.959695 0-325.928141-46.02422-325.928141-133.976364 0-1.36509 0.039909-2.719948 0.118704-4.064572l-0.118704 0 0-76.41232L93.232404 278.326239 622.3779 807.472757zM523.159154-65.292819c-173.895539 0-263.567861 50.195216-263.567861 71.616084l0 42.11826c62.437028-34.250058 163.386184-51.861158 263.567861-51.861158s201.131857 17.6111 263.567861 51.861158l0-42.11826C786.728038-15.097604 697.054693-65.292819 523.159154-65.292819zM523.159154 58.939623c-173.895539 0-263.567861 50.195216-263.567861 71.616084l0 42.132586c62.437028-34.250058 163.386184-51.861158 263.567861-51.861158s201.131857 17.6111 263.567861 51.861158l0-42.132586C786.728038 109.134839 697.054693 58.939623 523.159154 58.939623z"  horiz-adv-x="1024" />

    
    <glyph glyph-name="nan" unicode="&#58918;" d="M941.269787-44.966888c0.174985 0.264013 0.322341 0.540306 0.490164 0.807389 0.487094 0.774643 0.966001 1.552356 1.396813 2.363837 0.194428 0.366344 0.355087 0.743944 0.537236 1.115404 0.360204 0.734734 0.721431 1.467421 1.034563 2.227738 0.169869 0.413416 0.303922 0.837064 0.458441 1.254573 0.273223 0.735757 0.550539 1.467421 0.777713 2.223644 0.140193 0.465604 0.239454 0.938372 0.361227 1.408069 0.186242 0.719384 0.384763 1.432629 0.529049 2.167363 0.118704 0.602727 0.187265 1.210571 0.277316 1.817392 0.090051 0.610914 0.204661 1.214664 0.265036 1.834788 0.122797 1.242294 0.188288 2.489704 0.188288 3.737114L947.585633 220.166631c0 20.965497-16.96437 37.929868-37.929868 37.929868-20.965497 0-37.929868-16.96437-37.929868-37.929868l0-152.609747L692.298366 246.984417c-1.605567 1.605567-3.334955 3.00238-5.132904 4.260024 53.982472 61.436234 86.772272 141.931546 86.772272 229.952252 0 192.281281-156.462494 348.743776-348.743776 348.743776-192.31812 0-348.780615-156.462494-348.780615-348.743776 0-192.31812 156.462494-348.780615 348.780615-348.780615 77.68429 0 149.514245 25.548886 207.550033 68.673056 1.609661-2.75781 3.553942-5.375427 5.918803-7.740288l179.427532-179.427532L665.48058 13.921313c-20.965497 0-37.929868-16.96437-37.929868-37.929868 0-20.965497 16.965393-37.929868 37.929868-37.929868l244.176209 0c1.24741 0 2.493797 0.065492 3.737114 0.188288 0.620124 0.060375 1.223874 0.174985 1.834788 0.265036 0.606821 0.090051 1.214664 0.157589 1.817392 0.277316 0.734734 0.144286 1.449002 0.342808 2.167363 0.530073 0.469698 0.121773 0.942465 0.221034 1.407046 0.361227 0.756223 0.228197 1.488911 0.505513 2.223644 0.777713 0.418532 0.154519 0.841158 0.288572 1.254573 0.458441 0.760317 0.313132 1.493004 0.674359 2.227738 1.034563 0.37146 0.182149 0.74906 0.341784 1.115404 0.536212 0.810459 0.430812 1.589195 0.910743 2.363837 1.396813 0.267083 0.167822 0.543376 0.315178 0.807389 0.490164 1.02126 0.677429 2.006703 1.401929 2.955308 2.172479 0.00921 0.007163 0.01842 0.013303 0.026606 0.020466 2.00875 1.636267 3.845585 3.473101 5.481851 5.481851 0.007163 0.00921 0.013303 0.01842 0.020466 0.026606C939.867858-46.973592 940.592358-45.987125 941.269787-44.966888zM425.193958 208.275813c-150.498666 0-272.919856 122.42119-272.919856 272.919856 0 150.461827 122.42119 272.883017 272.919856 272.883017 150.461827 0 272.883017-122.42119 272.883017-272.883017C698.076976 330.698027 575.654762 208.275813 425.193958 208.275813z"  horiz-adv-x="1024" />

    
    <glyph glyph-name="consumption" unicode="&#59121;" d="M408.511 667.234h206.979c0 0 125.277 32.681 76.255 130.723-38.128 76.255-103.489 27.234-103.489 27.234s5.447 70.809-76.255 70.809-76.255-76.255-76.255-76.255-65.362 49.021-103.489-27.234c-43.574-92.596 76.255-125.277 76.255-125.277zM626.383 640h-228.766c-174.298-76.255-321.362-239.66-321.362-435.745 0-239.66 179.745-332.255 435.745-332.255s435.745 92.596 435.745 332.255c0 196.085-147.064 359.489-321.362 435.745zM664.511 231.489c16.34 0 27.234-10.894 27.234-27.234s-10.894-27.234-27.234-27.234h-125.277v-152.511c0-16.34-10.894-27.234-27.234-27.234s-27.234 10.894-27.234 27.234v152.511h-125.277c-16.34 0-27.234 10.894-27.234 27.234s10.894 27.234 27.234 27.234h130.723v76.255h-130.723c-16.34 0-27.234 10.894-27.234 27.234s10.894 27.234 27.234 27.234h98.043l-92.596 108.936c-10.894 10.894-10.894 27.234 0 32.681 10.894 10.894 27.234 10.894 38.128 0l108.936-130.723 108.936 130.723c10.894 10.894 27.234 10.894 38.128 0s10.894-27.234 5.447-38.128l-98.043-108.936h98.043c16.34 0 27.234-10.894 27.234-27.234s-10.894-27.234-27.234-27.234h-125.277v-76.255h125.277z"  horiz-adv-x="1024" />

    
    <glyph glyph-name="shijian00" unicode="&#59086;" d="M514.351 757.761c-207.95 0-376.527-168.577-376.527-376.526s168.578-376.527 376.527-376.527c207.95 0 376.527 168.578 376.527 376.527S722.301 757.761 514.351 757.761zM514.35 65.31c-174.48 0-315.923 141.444-315.923 315.924 0 174.481 141.444 315.925 315.923 315.925 174.482 0 315.925-141.444 315.925-315.925C830.275 206.754 688.831 65.31 514.35 65.31zM483.022 317.406c-19.632 0-35.604 15.97-35.604 35.599L447.418 603.429c0 19.632 15.972 35.604 35.604 35.604 19.628 0 35.597-15.972 35.597-35.604l0-214.822 152.217 0c19.632 0 35.603-15.971 35.603-35.603 0-19.629-15.971-35.599-35.603-35.599L483.022 317.405z"  horiz-adv-x="1024" />

    
    <glyph glyph-name="dian" unicode="&#58927;" d="M512 384m-447.616766 0a438 438 0 1 0 895.233533 0 438 438 0 1 0-895.233533 0Z"  horiz-adv-x="1024" />

    
    <glyph glyph-name="wenjian" unicode="&#58894;" d="M669.12 686.528V896H64v-1024h837.76V663.296h-209.408a23.232 23.232 0 0 0-23.232 23.232z m11.584-512.96H285.12a23.232 23.232 0 1 0 0 46.528h395.584a23.296 23.296 0 1 0 0-46.528z m0 155.136H285.12a23.232 23.232 0 1 0 0 46.528h395.584a23.296 23.296 0 1 0 0-46.528zM704 514.944a23.232 23.232 0 0 0-23.296-23.36H285.12a23.232 23.232 0 1 0 0 46.592h395.584c12.864 0 23.296-10.432 23.296-23.296zM715.648 863.104V709.76h153.28L715.648 863.104"  horiz-adv-x="1024" />

    
    <glyph glyph-name="xiala" unicode="&#58964;" d="M787.2 515.2c-9.6 9.6-22.4 12.8-35.2 12.8l-480-3.2c-12.8 0-25.6-3.2-35.2-12.8-19.2-19.2-19.2-48 0-67.2l240-240c3.2-3.2 9.6-6.4 12.8-9.6l3.2-3.2c16-6.4 38.4-3.2 51.2 9.6l240 243.2c22.4 22.4 19.2 51.2 3.2 70.4z"  horiz-adv-x="1024" />

    
    <glyph glyph-name="xuanzhongzhuangtai" unicode="&#58915;" d="M892.708571 896H131.291429A131.267048 131.267048 0 0 1 0 764.732952v-761.417142A131.291429 131.291429 0 0 1 131.291429-128h761.417142A131.291429 131.291429 0 0 1 1024 3.31581V764.732952A131.267048 131.267048 0 0 1 892.708571 896z m-24.307809-376.271238L463.384381 114.395429a26.038857 26.038857 0 0 0-36.815238 0l-8.167619 8.167619-0.024381-0.024381-8.850286 8.899047-38.180571 38.229334c-0.24381 0.26819-0.316952 0.585143-0.560762 0.853333l-175.177143 176.591238a26.063238 26.063238 0 0 0 0 36.839619l55.247238 55.271619a25.990095 25.990095 0 0 0 36.815238 0l157.525333-158.793143 331.142096 331.410286a25.990095 25.990095 0 0 0 36.815238 0l55.247238-55.247238a26.087619 26.087619 0 0 0 0-36.864z"  horiz-adv-x="1024" />

    
    <glyph glyph-name="tupian" unicode="&#58978;" d="M873.8816 773.76H150.11328C103.97184 773.76 66.56 736.35328 66.56 690.20672v-612.4032c0-46.15168 37.40672-83.5584 83.55328-83.5584h723.7632c46.15168 0 83.5584 37.41184 83.5584 83.5584V690.20672c0.00512 46.14144-37.40672 83.55328-83.55328 83.55328zM150.0928 718.08h723.8144a27.8528 27.8528 0 0 0 27.84768-27.84768v-327.90016c-44.86656 36.80768-122.64448 86.44096-215.95648 86.44096-86.03136 0-170.84928-66.66752-252.87168-131.13344-62.84288-49.38752-127.83616-100.48-173.42976-100.48-63.95904 0-118.71232 47.0272-137.2672 64.96256V690.2272a27.87328 27.87328 0 0 0 27.86304 27.8528z m723.81952-668.16H150.0928a27.8528 27.8528 0 0 0-27.8528 27.84768v132.16256c33.38752-23.64928 81.65888-48.47616 137.2672-48.47616 64.86528 0 134.3232 54.58432 207.85152 112.38912 74.57792 58.60864 151.69024 119.22432 218.44992 119.22432 119.66464 0 214.57408-105.33376 215.51104-106.40384l0.44544 0.39424v-209.29024a27.86304 27.86304 0 0 0-27.8528-27.84768zM297.53856 391.8848c61.9008 0 112.09216 50.18624 112.09216 112.09216s-50.19136 112.09216-112.09216 112.09216c-61.90592 0-112.09216-50.18624-112.09216-112.09216S235.63264 391.8848 297.53856 391.8848z m0.41472 168.21248c30.82752 0 55.808-24.9856 55.808-55.808s-24.99072-55.808-55.808-55.808-55.80288 24.9856-55.80288 55.808c0 30.8224 24.9856 55.808 55.80288 55.808z"  horiz-adv-x="1024" />

    
    <glyph glyph-name="nv" unicode="&#58902;" d="M887.394 761.927c-65.748 64.498-152.677 100.027-244.767 100.027-94.623 0-183.228-37.19-249.488-104.727-125.363-127.78-132.38-328.123-22.52-464.144l-84.835-86.477-191.63 188.002-56.764-57.859 191.623-188.009-134.352-136.946 57.859-56.764 134.352 136.946 191.623-188.003 56.764 57.859-191.617 188.002 84.829 86.47c61.053-47.504 135.69-73.367 214.135-73.367 94.629 0 183.234 37.196 249.495 104.734 134.967 137.581 132.853 359.295-4.708 494.256zM834.244 324.436c-50.887-51.874-118.945-80.445-191.636-80.445-70.739 0-137.5 27.288-187.996 76.838-105.659 103.66-107.281 273.96-3.621 379.626 50.895 51.874 118.945 80.438 191.63 80.438 70.739 0 137.5-27.288 188.003-76.832 105.667-103.654 107.287-273.952 3.621-379.626z"  horiz-adv-x="1026" />

    
    <glyph glyph-name="xiala2" unicode="&#58934;" d="M513.575051 101.473393a43.328357 43.328357 0 0 0-30.944698 12.997785L13.604685 592.600353a43.350032 43.350032 0 0 0 61.89662 60.711719L513.575051 206.734495l438.080971 446.584802a43.350032 43.350032 0 0 0 61.889395-60.711719L544.519749 114.471178a43.357257 43.357257 0 0 0-30.944698-12.997785z"  horiz-adv-x="1025" />

    
    <glyph glyph-name="shangmenfuwu" unicode="&#58901;" d="M716.452084 420.582392c-19.237734 0-34.893974-15.553912-34.893975-34.893974v-57.713201c0-19.237734 15.656241-34.893974 34.893975-34.893974s34.893974 15.656241 34.893974 34.893974v57.713201c0 19.340062-15.656241 34.893974-34.893974 34.893974zM810.287199 757.24273L451.626262 827.644649c-6.037374 1.22794-12.177076 1.841911-18.316779 1.84191-45.331468 0-80.839412-34.280004-80.839412-78.178874v-17.60048l-98.132907 15.553912c-5.730389 0.920955-11.563106 1.330269-17.191166 1.330269-46.047767 0-80.839412-29.470571-80.839413-68.560008v-588.592785c0-39.089437 34.791646-68.45768 80.839413-68.45768 5.62806 0 11.358449 0.409313 17.191166 1.330269l98.235235 15.656241V24.366943c0-43.796542 35.507944-78.178875 80.839413-78.178875 6.139702 0 12.279404 0.61397 18.21445 1.739583l358.763265 70.504247c37.452183 7.367643 65.797142 42.773259 65.797142 82.272009V674.97072c-0.204657 39.498751-28.447287 74.904367-65.89947 82.27201zM245.639253 80.954532c-19.135405-2.967523-34.280004 5.01409-34.280004 12.586389V682.236035c0 7.572299 15.246927 15.656241 34.177675 12.586389l106.830819-16.986509v-579.894874L245.639253 80.954532z m575.187768 20.05636c0-12.995703-9.721195-25.889078-21.181973-28.140301l-358.763265-70.504247c-2.455881-0.511642-5.01409-0.716299-7.5723-0.716299-15.144599 0-25.684421 9.41421-25.684421 22.921555V751.410013c0 15.758569 15.144599 25.786749 33.256721 22.205256l358.865594-70.504247c11.460777-2.353553 21.181973-15.246927 21.181972-28.140302v-573.959828z"  horiz-adv-x="1024" />

    
    <glyph glyph-name="back" unicode="&#58890;" d="M511.744-127.489c-69.066 0-136.132 13.493-199.201 40.28-60.97 25.787-115.742 62.669-162.619 109.745-47.077 46.977-83.958 101.649-109.745 162.719-26.687 63.169-40.18 130.135-40.18 199.201s13.593 136.132 40.18 199.201c25.787 60.67 62.669 115.542 109.745 162.519s101.649 83.958 162.619 109.545c63.069 26.687 130.135 40.28 199.201 40.28s136.132-13.493 199.201-40.28c60.97-25.787 115.742-62.569 162.619-109.545 47.077-46.977 83.958-101.649 109.745-162.719 26.687-63.169 40.18-130.135 40.18-199.201 0-92.654-25.088-183.409-72.464-262.569-8.696-14.493-27.286-19.090-41.679-10.495-14.393 8.696-18.991 27.286-10.495 41.779 41.679 69.665 63.768 149.625 63.868 231.185 0 60.87-11.894 119.84-35.382 175.413-22.689 53.773-55.272 101.849-96.652 143.329s-89.755 73.963-143.429 96.652c-55.672 23.488-114.643 35.382-175.613 35.382s-119.94-11.894-175.613-35.382c-53.573-22.689-101.749-55.272-143.129-96.652s-73.963-89.555-96.652-143.329c-23.488-55.572-35.382-114.643-35.382-175.413 0-60.87 11.894-119.84 35.382-175.413 22.689-53.773 55.272-101.849 96.652-143.329 41.379-41.379 89.755-73.963 143.429-96.652 55.572-23.588 114.643-35.382 175.613-35.382 90.855 0 178.411 26.887 253.274 77.761 13.893 9.395 32.784 5.897 42.279-7.996 9.395-13.893 5.897-32.884-7.996-42.279-85.158-57.871-184.608-88.356-287.757-88.356zM543.799 185.516h-161.919c-16.792 0-30.385 13.593-30.385 30.385s13.593 30.385 30.385 30.385h161.919c28.186 0 54.673 10.895 74.463 30.685 19.69 19.79 30.585 46.177 30.585 74.163 0 28.286-10.795 54.573-30.585 74.363-19.69 19.69-45.877 30.485-73.663 30.485h-162.919c-16.792 0-30.385 13.593-30.385 30.385s13.593 30.385 30.385 30.385h162.819c44.178 0 85.657-17.091 116.742-48.376 31.085-31.184 48.376-72.764 48.376-117.342 0-44.278-17.191-85.957-48.376-117.242-31.284-31.085-72.964-48.276-117.442-48.276zM408.866 594.712v-216.492l-108.146 108.346z"  horiz-adv-x="1024" />

    
    <glyph glyph-name="cancel" unicode="&#58997;" d="M482.7 646.1v143.8c0 37.4-45.3 56.2-71.7 29.7l-270.7-270.6c-16.4-16.4-16.4-43 0-59.4l270.6-270.6c26.5-26.5 71.7-7.7 71.7 29.7v155c96.1 0.3 271.5 10.7 271.5-227.7 0-118.1-92.8-216.8-216-239.6 198.1 24.4 326 236 326 361.9 0.1 292.6-309.4 346.3-381.4 347.8z"  horiz-adv-x="1024" />

    
    <glyph glyph-name="qiehuanzuhu" unicode="&#58962;" d="M950.093 408.228l-179.775 173.078c-14.382 13.851-35.955 13.851-50.336 0-14.382-13.842-14.382-34.614 0-48.465l118.647-114.228h-345.168c-21.573 0-35.955-13.842-35.955-34.614s14.382-34.614 35.955-34.614h345.168l-118.639-114.228c-14.382-13.851-14.382-34.623 0-48.465 7.192-6.93 14.382-10.386 25.164-10.386 10.792 0 17.982 3.465 25.173 10.386l179.775 176.535s0 3.465 3.6 3.465c10.782 10.386 10.782 31.149-3.6 41.535zM853.010 141.693c-21.573 0-35.955-13.851-35.955-34.614v-69.237c0-20.763-14.382-34.614-35.955-34.614h-611.235c-21.573 0-35.955 13.851-35.955 34.614v692.317c0 20.763 14.382 34.614 35.955 34.614h611.235c21.573 0 35.955-13.851 35.955-34.614v-69.237c0-20.764 14.382-34.614 35.955-34.614s35.955 13.851 35.955 34.614v69.237c0 58.842-46.736 103.842-107.865 103.842h-611.235c-61.119 0-107.865-45-107.865-103.842v-692.317c0-58.842 46.747-103.842 107.865-103.842h611.235c61.128 0 107.865 45 107.865 103.842v69.237c0 20.764-14.382 34.614-35.955 34.614z"  horiz-adv-x="1024" />

    
    <glyph glyph-name="shezhi" unicode="&#58893;" d="M994.86408 506.52a98.848 98.848 0 0 1-68.88 29.336c-5.08 0.536-23.496 2.392-49.968 4.928a391.984 391.984 0 0 1-45.008 79.048c12.264 26.624 20.152 43.872 20.088 43.992 27.464 47.64 11.168 108.752-36.384 136.312L723.14408 853.296a99.856 99.856 0 0 1-50.056 13.504c-35.544 0-68.672-19.072-84.824-47.216 0 0-11.608-16.136-29.824-41.632a393.76 393.76 0 0 1-90.944-0.144c-17.008 24.088-28.176 39.744-28.328 39.744a100.128 100.128 0 0 1-86.552 49.936c-17.344 0-34.504-4.584-49.656-13.248l-91.84-52.76c-47.736-27.464-64.256-88.616-38.2-133.672 0 0 8.968-19.904 23.008-50.648a358.296 358.296 0 0 1-21.056-31.96 372.144 372.144 0 0 1-20.952-42.36c-32.472-2.952-53.8-5.008-54.04-5.136C45.11208 537.624 0.41608 492.976 0.24808 438.056L0.00008 332.184c-0.064-55.04 44.608-99.928 96.616-99.928h0.04s23.808-2.392 60.368-5.848a391.424 391.424 0 0 1 40.2-69.064c-14.728-31.84-24.352-53.008-24.28-53.128a99.16 99.16 0 0 1-10.04-75.6 99.192 99.192 0 0 1 46.4-60.744l91.6-53.16a100.136 100.136 0 0 1 50.056-13.496c35.512 0 68.648 19.072 84.768 47.216 0 0 14.144 19.576 35.632 49.784 26.56-2.888 53.336-3.168 79.928-0.68 20.032-28.392 33.376-47.072 33.496-47.072a100.224 100.224 0 0 1 86.584-49.968c17.368 0 34.56 4.6 49.664 13.288l91.808 52.704a99.256 99.256 0 0 1 46.712 60.624 99.088 99.088 0 0 1-9.04 74.312c-2.208 4.928-10.656 23.64-22.888 50.448a374.088 374.088 0 0 1 26.384 39.216 362.928 362.928 0 0 1 17.312 34.144c31.728 2.896 52.552 4.896 52.704 5.016 54.92 0.096 99.632 44.776 99.72 99.632L1024.00008 435.816a99.36 99.36 0 0 1-29.136 70.704z m-32.264-176.48c-0.032-21.312-17.432-38.656-41.816-38.808-0.064 0-29.696-2.864-73.272-6.776a30.576 30.576 0 0 1-25.64-19.104c-6.832-17.072-13.432-30.92-20.744-43.576-8.896-15.248-19.552-30.296-32.592-45.928a30.544 30.544 0 0 1-4.328-32.296c18.624-40.648 31.072-68.408 31.104-68.472 0.416-0.92 0.888-1.824 1.4-2.72a38.456 38.456 0 0 0 3.824-29.336 38.616 38.616 0 0 0-18.144-23.52l-91.84-52.704c-5.84-3.376-12.48-5.168-19.184-5.168-13.88 0-26.776 7.464-35.312 21.992-0.032 0.032-18.504 25.936-45.24 63.992a30.656 30.656 0 0 1-29.376 12.688 328.48 328.48 0 0 0-99.416 0.864 30.656 30.656 0 0 1-29.784-12.504c-27.168-38.296-46.024-64.416-47.728-67.008-10.264-17.76-35.008-24.48-52.936-14.056l-91.6 53.16c-8.936 5.192-15.328 13.544-17.984 23.544s-1.272 20.448 5.312 32.088c0.032 0.064 13.368 29.368 33.144 71.992a30.528 30.528 0 0 1-3.912 32.024 330.784 330.784 0 0 0-50.056 85.928 30.536 30.536 0 0 1-25.576 19.216c-46.376 4.328-78.08 7.52-81.112 7.672a38.856 38.856 0 0 0-38.664 38.856l0.256 105.816c0.056 21.336 17.416 38.68 38.68 38.68 0.984 0 2.192 0.064 3.176 0.152 0.056 0 30.368 2.952 74.888 6.928a30.544 30.544 0 0 1 25.92 19.784c7.152 19.168 14.888 35.88 23.728 51.072 7.24 12.504 16 25.104 27.552 39.696a30.528 30.528 0 0 1 3.832 31.712c-18.232 39.808-30.488 66.976-31.856 69.68a38.808 38.808 0 0 0 14.296 52.888l91.792 52.728c18.072 10.352 41.888 4.712 54.512-16.808 0.032-0.032 16.416-23.048 40.472-57.144a30.56 30.56 0 0 1 30.176-12.504c35.28 6.072 72.528 6.192 109.176 0.208a30.64 30.64 0 0 1 29.824 12.464c24.024 33.832 40.264 56.352 41.96 58.944 10.272 17.712 34.92 24.512 52.92 14.056l91.6-53.168a38.384 38.384 0 0 0 17.992-23.544c2.656-10.016 1.256-20.464-5.312-32.072 0-0.032-11.512-25.296-28.944-62.96a30.512 30.512 0 0 1 3.968-32.056c23.464-29.016 41.632-60.952 54.024-94.944a30.512 30.512 0 0 1 25.84-19.968c41.496-3.936 69.512-6.808 69.568-6.808 11.288-0.952 22.328-3.496 30.392-11.52a38.528 38.528 0 0 0 11.312-27.432l-0.272-105.92zM603.66408 541.984a177.816 177.816 0 0 1-89.128 24.024c-63.24 0-122.216-33.936-153.944-88.584-49.184-84.832-20.224-193.856 64.56-243.072a177.76 177.76 0 0 1 89.12-24.032c63.24 0 122.224 33.936 153.952 88.584a176.6 176.6 0 0 1 18.056 134.904 176.568 176.568 0 0 1-82.616 108.176z m11.672-212.4a117.168 117.168 0 0 0-101.064-58.144c-20.448 0-40.648 5.44-58.44 15.792-55.632 32.296-74.648 103.832-42.352 159.504a117.16 117.16 0 0 0 101.056 58.144c20.448 0 40.656-5.432 58.448-15.792a115.944 115.944 0 0 0 54.224-70.976c8-30.112 3.8-61.576-11.872-88.528z"  horiz-adv-x="1024" />

    
    <glyph glyph-name="youjiantou" unicode="&#58880;" d="M288.791335 830.417329l446.41733-446.417329-446.41733-446.417329z"  horiz-adv-x="1024" />

    
    <glyph glyph-name="zuojiantou" unicode="&#58881;" d="M735.208665 830.417329l-446.41733-446.417329 446.41733-446.417329z"  horiz-adv-x="1024" />

    
    <glyph glyph-name="shijian" unicode="&#59078;" d="M888.832 171.008c-6.144-10.24-18.432-14.336-28.672-8.192-10.24 6.144-14.336 18.432-8.192 28.672 104.448 188.416 36.864 423.936-151.552 528.384-188.416 104.448-423.936 36.864-528.384-151.552s-36.864-423.936 151.552-528.384c135.168-75.776 301.056-61.44 423.936 28.672 8.192 6.144 22.528 4.096 28.672-4.096 6.144-8.192 4.096-22.528-4.096-28.672-135.168-102.4-317.44-116.736-466.944-32.768-206.848 114.688-282.624 376.832-167.936 583.68 114.688 206.848 376.832 282.624 583.68 167.936 206.848-114.688 282.624-376.832 167.936-583.68z m-356.352 505.856v-288.768l288.768-86.016c10.24-4.096 16.384-14.336 14.336-24.576-4.096-10.24-14.336-16.384-24.576-14.336l-319.488 96.256v319.488c0 12.288 8.192 20.48 20.48 20.48s20.48-10.24 20.48-22.528z"  horiz-adv-x="1024" />

    
    <glyph glyph-name="wushuju" unicode="&#58952;" d="M156.662278 196.241827h21.097186A10.444152 10.444152 0 0 0 187.994733 185.797675c0-5.765172-4.490985-10.444152-10.235269-10.444152H156.662278v-21.097186A10.444152 10.444152 0 0 0 146.218126 144.021068a10.277045 10.277045 0 0 0-10.444152 10.235269V175.353523H114.676787A10.444152 10.444152 0 0 0 104.441518 185.797675c0 5.765172 4.490985 10.444152 10.235269 10.444152H135.773974v21.097187A10.444152 10.444152 0 0 0 146.218126 227.574283c5.765172 0 10.444152-4.490985 10.444152-10.235269v-21.097187z m1378.628042 83.553215v21.097186A10.277045 10.277045 0 0 1 1524.846168 311.127497a10.444152 10.444152 0 0 1-10.444152-10.235269v-21.097186h-21.097186a10.277045 10.277045 0 0 1-10.235269-10.444152c0-5.598065 4.595427-10.444152 10.235269-10.444152h21.097186v-21.097187c0-5.744284 4.67898-10.235269 10.444152-10.235268a10.444152 10.444152 0 0 1 10.444152 10.235268V258.906738h21.097187c5.744284 0 10.235269 4.67898 10.235268 10.444152a10.444152 10.444152 0 0 1-10.235268 10.444152H1535.29032zM776.460024-64.861969H250.596979A20.80475 20.80475 0 0 0 229.77134-43.973665c0 11.530344 9.462402 20.888304 20.825639 20.888303h94.728457A83.010119 83.010119 0 0 0 334.212859 18.586804v605.96969A83.49055 83.49055 0 0 0 417.849627 708.005267H480.430984V728.998012A83.49055 83.49055 0 0 0 564.067752 812.446785h501.152182A83.448773 83.448773 0 0 0 1148.856702 728.998012v-605.969689c0-15.185797-4.052331-29.410732-11.133466-41.672166h115.554096c11.551232 0 20.909192-9.274407 20.909192-20.888304 0-11.530344-9.295295-20.888304-20.888304-20.888304H1002.638576v-20.992745c0-15.185797-4.052331-29.410732-11.133466-41.672166h11.196131c11.488567 0 20.825639-9.274407 20.825639-20.888303 0-11.530344-9.462402-20.888304-20.825639-20.888304h-109.893365c9.545955-16.000441 7.478013-36.972297-6.41271-50.863019a41.672166 41.672166 0 0 0-59.072122 0L776.460024-64.861969z m76.367638 41.776607h66.424806c22.977134 0 41.609501 18.59059 41.609501 41.881049V625.538244c0 22.559368-18.047494 40.690416-40.314426 40.690416H416.303892c-22.266932 0-40.314426-18.214601-40.314426-40.690416v-606.742557c0-23.123352 18.799473-41.881049 41.588613-41.881049h317.084449l-10.736588 10.757477a41.693054 41.693054 0 0 0-10.861918 40.377091l-19.718558 19.739447A146.259902 146.259902 0 0 0 502.363703 268.306475a146.218126 146.218126 0 0 0 220.517822-190.981761l19.739447-19.739447a41.630389 41.630389 0 0 0 40.377091-10.841029L852.827662-23.085362zM1002.638576 81.356157h62.852906A41.797496 41.797496 0 0 1 1107.080095 123.132764V728.893571c0 23.14424-18.632367 41.776607-41.588613 41.776607H563.775316A41.797496 41.797496 0 0 1 522.207592 728.893571v-20.888304h396.794216A83.448773 83.448773 0 0 0 1002.638576 624.556494V81.356157zM266.325872 849.001317h31.123572c8.773088 0 15.875111-6.955805 15.875111-15.666228 0-8.647758-7.102023-15.666228-15.875111-15.666228h-31.123572v-31.123572c0-8.773088-6.955805-15.875111-15.666228-15.875111a15.770669 15.770669 0 0 0-15.666228 15.875111V817.668861H203.869844A15.728893 15.728893 0 0 0 187.994733 833.335089c0 8.647758 7.102023 15.666228 15.875111 15.666228h31.123572V880.124889c0 8.773088 6.955805 15.875111 15.666228 15.875111 8.647758 0 15.666228-7.102023 15.666228-15.875111v-31.123572zM20.888304-43.973665c0 11.530344 9.462402 20.888304 20.825638 20.888303h125.455152c11.488567 0 20.825639-9.274407 20.825639-20.888303 0-11.530344-9.462402-20.888304-20.825639-20.888304H41.713942A20.80475 20.80475 0 0 0 20.888304-43.973665z m658.733544 135.021995a104.441518 104.441518 0 1 1-147.722083 147.722083 104.441518 104.441518 0 0 1 147.722083-147.722083zM459.542681 582.675445a20.888304 20.888304 0 0 0 20.867415 20.888304H710.202325a20.888304 20.888304 0 1 0 0-41.776608H480.430984A20.825639 20.825639 0 0 0 459.542681 582.675445z m0-104.441518c0 11.530344 9.295295 20.888304 20.742085 20.888303h334.505295c11.44679 0 20.742086-9.274407 20.742086-20.888303 0-11.530344-9.295295-20.888304-20.742086-20.888304H480.284766A20.762974 20.762974 0 0 0 459.542681 478.233927z m0-104.441519c0 11.530344 9.316183 20.888304 20.846527 20.888304h146.301679c11.509455 0 20.846527-9.274407 20.846527-20.888304 0-11.530344-9.316183-20.888304-20.846527-20.888303h-146.301679A20.80475 20.80475 0 0 0 459.542681 373.792408zM62.664911 499.12223a62.664911 62.664911 0 1 0 0 125.329822 62.664911 62.664911 0 0 0 0-125.329822z m0 31.332456a31.332456 31.332456 0 1 1 0 62.664911 31.332456 31.332456 0 0 1 0-62.664911zM1357.739739 624.452052a62.664911 62.664911 0 1 0 0 125.329822 62.664911 62.664911 0 0 0 0-125.329822z m0 31.332456a31.332456 31.332456 0 1 1 0 62.664911 31.332456 31.332456 0 0 1 0-62.664911z"  horiz-adv-x="1567" />

    
    <glyph glyph-name="danju-tianchong" unicode="&#58928;" d="M853.333333 768h-177.066666c-19.2 0-36.266667 12.8-40.533334 32-14.933333 55.466667-64 96-123.733333 96s-108.8-40.533333-123.733333-96c-4.266667-19.2-21.333333-32-40.533334-32H170.666667C134.4 768 106.666667 740.266667 106.666667 704v-768c0-36.266667 27.733333-64 64-64h682.666666c36.266667 0 64 27.733333 64 64V704c0 36.266667-27.733333 64-64 64zM469.333333 768h85.333334c12.8 0 21.333333-8.533333 21.333333-21.333333s-8.533333-21.333333-21.333333-21.333334h-85.333334c-12.8 0-21.333333 8.533333-21.333333 21.333334s8.533333 21.333333 21.333333 21.333333z m128-661.333333H256c-12.8 0-21.333333 8.533333-21.333333 21.333333s8.533333 21.333333 21.333333 21.333333h341.333333c12.8 0 21.333333-8.533333 21.333334-21.333333s-8.533333-21.333333-21.333334-21.333333z m85.333334 192H256c-12.8 0-21.333333 8.533333-21.333333 21.333333s8.533333 21.333333 21.333333 21.333333h426.666667c12.8 0 21.333333-8.533333 21.333333-21.333333s-8.533333-21.333333-21.333333-21.333333z m85.333333 192H256c-12.8 0-21.333333 8.533333-21.333333 21.333333s8.533333 21.333333 21.333333 21.333333h512c12.8 0 21.333333-8.533333 21.333333-21.333333s-8.533333-21.333333-21.333333-21.333333z"  horiz-adv-x="1024" />

    
    <glyph glyph-name="mendian" unicode="&#58892;" d="M960.507 528.896c-0.046 0.512-0.174 0.957-0.22 1.331-0.446 1.89-0.973 3.733-1.69 5.51l-76.913 190.98c-13.322 39.614-51.517 63.903-96.276 63.995H245.949c-45.342 0-80.537-24.069-93.28-62.126L70.046 533.72c-0.4-1.157-0.799-2.842-1.173-4.577-6.016-18.386-9.016-37.279-9.016-56.218 0.066-66.657 36.68-127.452 95.544-158.807 0 0 0-0.046 0.02-0.046 0.042 0 0.042 0 0.042-0.046 0 0 0.02 0 0.02-0.041 24.248-12.923 52.736-19.41 84.844-19.41 53.826 0.133 103.628 23.716 137.62 64.123 33.777-40.054 83.22-63.498 136.96-63.857 53.29 0.44 102.584 23.936 136.243 63.99 33.977-40.366 83.892-63.903 137.933-63.903 32.686 0.18 61.768 7.02 86.288 20.43 57.953 31.62 93.926 92.256 93.88 158.228 0.092 18.964-3.016 38.016-8.745 55.311zM843.935 364.518c-14.833-8.125-33.393-12.298-54.933-12.39-39.926 0-76.293 20.204-97.566 54.554-1.51 3.266-4.086 8.617-8.75 13.788-5.458 6.062-15.274 13.23-31.442 13.23-13.103 0-24.914-5.33-31.576-13.502-4.439-5.017-6.84-9.948-8.57-13.522-21.008-33.904-57.068-54.333-96.19-54.645-39.634 0.225-75.827 20.603-96.947 54.758-1.464 3.02-3.932 8.105-7.772 12.39-15.411 18.36-49.915 17.409-63.35 1.419-4.951-5.417-7.552-10.86-9.216-14.52-21.16-33.926-57.6-54.314-97.367-54.4-21.161 0-39.327 3.993-53.914 11.77h-0.112c-37.504 19.917-69.187 67.057-69.212 109.466 0 12.523 2.063 25.175 6.287 37.478 0.312 0.886 0.553 1.864 0.799 2.868l81.382 200.35c1.664 4.926 6.707 19.85 32 19.85h556.396c10.434-0.599 28.334-2.442 34.682-21.135l76.207-197.775a30.75 30.75 0 0 1 0.972-3.753c4.265-12.345 6.303-24.894 6.303-37.325 0.097-41.897-31.206-88.812-68.111-108.954z m28.774-96.716c-18.12 0-28.6-14.654-28.6-32.733l0.092-182.743c0-10.168-8.305-18.432-18.473-18.467l-633.646-0.4c-10.168 0-18.427 8.213-18.427 18.294l-0.246 179.722c-0.02 18.028-10.526 32.64-28.6 32.64h-0.067c-18.073-0.046-28.554-14.7-28.528-32.814l0.22-175.416c0-46.142 37.683-83.712 83.999-83.712l617.036 0.4c46.275 0.091 83.938 37.744 83.938 83.931l-0.092 178.57c-0.006 18.11-10.486 32.728-28.606 32.728z m-101.606 237.49H246.482c-18.12 0-32.799 10.502-32.799 28.555 0 18.028 14.7 28.554 32.799 28.554h524.62c18.115 0 32.769-10.526 32.769-28.554 0.005-18.048-14.649-28.554-32.768-28.554z"  horiz-adv-x="1024" />

    
    <glyph glyph-name="renwu" unicode="&#59273;" d="M896 361.6v-265.6c0-54.4-41.6-96-96-96h-576c-54.4 0-96 41.6-96 96v256 3.2 6.4l102.4 416c3.2 12.8 16 25.6 32 25.6h499.2c16 0 28.8-9.6 32-25.6l102.4-416z m-73.6 22.4l-86.4 352h-448l-86.4-352h118.4c9.6 0 16-3.2 22.4-9.6l86.4-86.4h163.2l89.6 86.4c6.4 6.4 12.8 9.6 22.4 9.6h118.4z m9.6-64h-115.2l-89.6-86.4c-6.4-6.4-12.8-9.6-22.4-9.6h-188.8c-9.6 0-16 3.2-22.4 9.6l-86.4 86.4h-115.2v-224c0-19.2 12.8-32 32-32h576c19.2 0 32 12.8 32 32v224z"  horiz-adv-x="1024" />

    
    <glyph glyph-name="ico_compile" unicode="&#58967;" d="M490.66666667 840.53333334v-68.26666667H149.33333334a68.26666667 68.26666667 0 0 1-68.26666667-68.26666667v-682.66666666a68.26666667 68.26666667 0 0 1 68.26666667-68.26666667h682.66666666a68.26666667 68.26666667 0 0 1 68.26666667 68.26666667V362.66666667000004h68.26666667v-341.33333333a136.53333333 136.53333333 0 0 0-136.53333334-136.53333334H149.33333334a136.53333333 136.53333333 0 0 0-136.53333334 136.53333334V704a136.53333333 136.53333333 0 0 0 136.53333334 136.53333334h341.33333333z m94.208-500.05333334a34.13333333 34.13333333 0 1 0-51.88266667 44.37333334l409.6 477.86666666a34.13333333 34.13333333 0 0 0 51.88266667-44.37333333l-409.6-477.86666667z"  horiz-adv-x="1024" />

    
    <glyph glyph-name="guanliyuan" unicode="&#58982;" d="M721.3 557.4c0 110.8-90.2 201-201 201s-201-90.2-201-201c0-72.5 38.6-136.1 96.2-171.5-10.4-3.3-20.6-7.1-30.7-11.3-42.1-17.8-79.9-43.3-112.4-75.8s-58-70.3-75.8-112.4c-18.4-43.6-27.8-89.9-27.8-137.6h46c0 169.6 138 307.6 307.6 307.6 109.9 1.2 198.9 90.9 198.9 201z m-356 0c0 85.5 69.5 155 155 155s155-69.5 155-155-69.5-155-155-155-155 69.5-155 155zM765.5 214v50.2H843v46h-77.4v58H843v46H719.5v-204.8c-40.7-13.8-69.6-52.3-69.6-97.2 0-56.6 46-102.6 102.6-102.6 56.6 0 102.6 46 102.6 102.6 0.1 52.2-39.1 95.4-89.6 101.8z m-13-158.4c-31.2 0-56.6 25.4-56.6 56.6 0 30 23.4 54.8 53.3 56.6 1.1 0.1 2.2 0.1 3.3 0.1 31.2 0 56.6-25.4 56.6-56.6s-25.3-56.7-56.6-56.7z"  horiz-adv-x="1024" />

    
    <glyph glyph-name="shuju" unicode="&#58909;" d="M464.9-90.4c-57.8 0-113.8 11.3-166.6 33.6-51 21.6-96.7 52.4-136 91.7C123 74.3 92.1 120 70.6 171 48.3 223.8 37 279.8 37 337.6s11.3 113.8 33.6 166.6c21.6 51 52.4 96.7 91.7 136 39.3 39.3 85.1 70.2 136 91.7 52.8 22.3 108.8 33.6 166.6 33.6h29v-400.2H893v-28c0-57.7-11.4-113.8-33.7-166.5-21.6-50.9-52.4-96.7-91.7-136-39.3-39.3-85.1-70.1-136-91.6-52.9-22.3-108.9-33.6-166.7-33.6z m-27 799.1c-89.2-6.4-172.1-44.1-236-108-70.3-70.3-109-163.7-109-263 0-99.4 38.7-192.8 109-263s163.7-109 263-109c99.3 0 192.7 38.7 263 108.9 63.6 63.6 101.4 146.1 108 234.9h-398V708.7zM987.1 422.3l-28 0.1h-408v436l28.1-0.1c55.1-0.1 108.5-11 158.8-32.3 48.6-20.6 92.2-50 129.7-87.4 37.5-37.4 66.9-81 87.4-129.5 21.3-50.2 32.1-103.6 32.1-158.5v-28.3z m-380 56.1H930c-6.5 83.3-42.1 160.9-102 220.7-59.8 59.8-137.4 95.5-220.9 102.2v-322.9z"  horiz-adv-x="1024" />

    
    <glyph glyph-name="xiugai" unicode="&#59041;" d="M224 282.51V192h90.51l271.53 271.53-90.51 90.51L224 282.51zM653.92 576.67l-45.25 45.25a32 32 0 0 1-45.25 0l-22.63-22.63 90.51-90.51 22.63 22.63a32 32 0 0 1-0.01 45.26zM224 128h576v-64H224z"  horiz-adv-x="1025" />

    
    <glyph glyph-name="qian" unicode="&#58926;" d="M513 832.2c-246.5 0-446.3-199.8-446.3-446.3S266.5-60.4 513-60.4s446.3 199.8 446.3 446.3S759.5 832.2 513 832.2z m163.4-297.4L596.6 455h34.9c19.1 0 34.6-15.5 34.6-34.6s-15.5-34.6-34.6-34.6h-83.9v-44.2h83.9c19.1 0 34.6-15.5 34.6-34.6s-15.5-34.6-34.6-34.6h-83.9v-96c0-19.1-15.5-34.6-34.6-34.6s-34.6 15.5-34.6 34.6v96h-83.9c-19.1 0-34.6 15.5-34.6 34.6s15.5 34.6 34.6 34.6h83.9v44.2h-83.9c-19.1 0-34.6 15.5-34.6 34.6s15.5 34.6 34.6 34.6h34.9l-79.8 79.8c-13.5 13.5-13.5 35.4 0 49 13.5 13.5 35.4 13.5 49 0L513 469.3l114.4 114.4c13.5 13.5 35.4 13.5 49 0 13.5-13.5 13.5-35.4 0-48.9z"  horiz-adv-x="1024" />

    
    <glyph glyph-name="shuaxin1" unicode="&#58899;" d="M911.40249 288.39834c-21.244813 4.248963-46.738589-8.497925-50.987552-29.742738-42.489627-174.207469-195.452282-293.178423-373.908714-293.178424-212.448133 0-386.655602 174.207469-386.655602 386.655602s174.207469 386.655602 386.655602 386.655602c97.726141 0 195.452282-38.240664 263.435685-106.224067h-178.456432c-21.244813 0-42.489627-16.995851-42.489626-42.489626 0-21.244813 16.995851-42.489627 42.489626-42.489627h263.435685c21.244813 0 42.489627 16.995851 42.489626 42.489627v263.435684c0 21.244813-16.995851 42.489627-42.489626 42.489627-21.244813 0-42.489627-16.995851-42.489627-42.489627v-148.713693c-84.979253 76.481328-195.452282 118.970954-310.174274 118.970955-259.186722 0-471.634855-212.448133-471.634854-471.634855s212.448133-471.634855 471.634854-471.634855c216.697095 0 403.651452 148.713693 458.887967 356.912863 4.248963 21.244813-8.497925 42.489627-29.742738 50.987552z"  horiz-adv-x="1024" />

    
    <glyph glyph-name="shouqi" unicode="&#58910;" d="M512 543.5392l335.7696-335.7696a32 32 0 1 1 45.2608 45.2608l-354.816 354.816a37.12 37.12 0 0 1-52.48 0l-354.7648-354.816a32 32 0 0 1 45.2608-45.2608L512 543.5392z"  horiz-adv-x="1024" />

    
    <glyph glyph-name="fangjian" unicode="&#58903;" d="M992.08768 563.2L544.08768 844.8c-19.2 12.8-44.8 12.8-64 0l-448-281.6C-25.51232 531.2 0.08768 448 64.08768 448h896c64 0 89.6 83.2 32 115.2zM128.08768 454.4v-486.4c0-32 25.6-51.2 51.2-51.2H832.08768c32 0 51.2 25.6 51.2 51.2V454.4H128.08768z m499.2-492.8H390.48768V192c0 64 51.2 115.2 115.2 115.2s121.6-51.2 121.6-115.2v-230.4z"  horiz-adv-x="1024" />

    
    <glyph glyph-name="guke" unicode="&#58883;" d="M535.9 223.7H405.4c-16.6 0-30.1-13.5-30.1-30.1s13.5-30.1 30.1-30.1h130.5c16.6 0 30.1 13.5 30.1 30.1s-13.5 30.1-30.1 30.1zM627.8 388.4c50.6 39.3 80.8 103.6 71.7 174.2-11 85.3-80.3 153.4-165.8 162.9-114 12.7-210.8-76.5-210.8-187.8 0-60.7 28.7-114.7 73.3-149.3C267 341 174.5 216.8 174.5 71.4c0-16.6 13.5-30.1 30.1-30.1h614.7c16.6 0 30.1 13.5 30.1 30.1 0.1 145.4-92.4 269.6-221.6 317zM383.2 537.7c0 71 57.8 128.8 128.8 128.8s128.8-57.8 128.8-128.8S583 408.8 512 408.8s-128.8 57.8-128.8 128.9zM236.4 101.5c15 138.8 132.9 247.2 275.6 247.2 142.7 0 260.6-108.4 275.6-247.2H236.4zM629.6 193.6m-30.1 0a30.1 30.1 0 1 1 60.2 0 30.1 30.1 0 1 1-60.2 0Z"  horiz-adv-x="1024" />

    
    <glyph glyph-name="paibanguanli" unicode="&#58939;" d="M694.272 573.44h12.288a25.088 25.088 0 0 1 25.6 24.576V721.408a25.088 25.088 0 0 1-25.6 24.576h-12.288a25.088 25.088 0 0 1-25.6-24.576v-123.392a25.088 25.088 0 0 1 25.6-24.576zM315.392 573.44h12.288a25.088 25.088 0 0 1 25.6 24.576V721.408a25.088 25.088 0 0 1-25.6 24.576h-12.288a25.088 25.088 0 0 1-25.6-24.576v-123.392a25.088 25.088 0 0 1 25.6-24.576zM803.328 680.96h-51.2V588.8a44.544 44.544 0 0 0-45.056-44.032h-12.288a44.544 44.544 0 0 0-45.568 44.032V680.96H373.248V588.8a44.544 44.544 0 0 0-45.056-44.032h-12.8A44.544 44.544 0 0 0 270.336 588.8V680.96h-51.2A67.072 67.072 0 0 1 153.6 614.4v-525.312a67.072 67.072 0 0 1 67.072-67.072h582.656A67.072 67.072 0 0 1 870.4 89.088V613.888a67.072 67.072 0 0 1-67.072 67.072zM321.536 157.184a34.816 34.816 0 0 0-34.816-34.304H256a34.816 34.816 0 0 0-34.816 34.304v11.264a34.816 34.816 0 0 0 34.816 34.304h30.72a34.816 34.816 0 0 0 34.816-34.304z m0 137.728a34.816 34.816 0 0 0-34.816-34.304H256a34.816 34.816 0 0 0-34.816 34.304v11.264a34.816 34.816 0 0 0 34.816 34.304h30.72a34.816 34.816 0 0 0 34.816-34.816z m0 137.728a34.816 34.816 0 0 0-34.816-34.816H256a34.816 34.816 0 0 0-34.816 34.816v10.752A34.816 34.816 0 0 0 256 478.208h30.72a34.816 34.816 0 0 0 34.816-34.816z m159.232-275.456a34.816 34.816 0 0 0-34.816-34.304h-32.768a34.816 34.816 0 0 0-34.816 34.304v11.264a34.816 34.816 0 0 0 34.816 34.304h32.768a34.816 34.816 0 0 0 34.816-34.304z m0 137.728a34.816 34.816 0 0 0-34.816-34.304h-32.768a34.816 34.816 0 0 0-34.816 34.304v11.264a34.816 34.816 0 0 0 34.816 34.816h32.768a34.816 34.816 0 0 0 34.816-34.816z m0 137.728a34.816 34.816 0 0 0-34.816-34.816h-32.768a34.816 34.816 0 0 0-34.816 34.816v10.752a34.816 34.816 0 0 0 34.816 34.816h32.768a34.816 34.816 0 0 0 34.816-34.816z m164.864-137.728a34.816 34.816 0 0 0-34.816-34.304h-32.768a34.816 34.816 0 0 0-34.816 34.304v11.264a34.816 34.816 0 0 0 34.816 34.816h32.768a34.816 34.816 0 0 0 34.816-34.816z m0 137.728a34.816 34.816 0 0 0-34.816-34.816h-32.768a34.816 34.816 0 0 0-34.816 34.816v10.752a34.816 34.816 0 0 0 34.816 34.816h32.768a34.816 34.816 0 0 0 34.816-34.816z m159.232-137.728a34.816 34.816 0 0 0-34.816-34.304h-32.768a34.816 34.816 0 0 0-34.816 34.304v11.264a34.816 34.816 0 0 0 34.816 34.816h30.72a34.816 34.816 0 0 0 34.816-34.816z m0 137.728a34.816 34.816 0 0 0-34.816-34.816h-32.768a34.816 34.816 0 0 0-34.816 34.816v10.752a34.816 34.816 0 0 0 34.816 34.816h30.72a34.816 34.816 0 0 0 34.816-34.816z"  horiz-adv-x="1024" />

    
    <glyph glyph-name="mendian1" unicode="&#58935;" d="M153.87648 801.64352h729.728c33.01376 0 33.01376 51.2 0 51.2H153.87648c-33.01888 0-33.01888-51.2 0-51.2zM260.27008 502.4768c-3.58912-93.05088-173.54752-93.04576-177.14176 0-1.26976 32.90624-52.47488 33.02912-51.2 0 6.13888-159.08864 273.40288-159.08864 279.54176 0 1.27488 33.02912-49.93024 32.90624-51.2 0zM491.91424 502.4768c-3.58912-93.06112-173.52704-93.03552-177.11616 0-1.26976 32.90624-52.47488 33.02912-51.2 0 6.144-159.0784 273.39776-159.10912 279.53152 0 1.27488 33.02912-49.9456 32.90624-51.21536 0zM720.24064 502.4768c-3.58912-93.06624-173.52192-93.0304-177.11104 0-1.26976 32.90624-52.49024 33.02912-51.21536 0 6.13888-159.0784 273.38752-159.10912 279.5264 0 1.27488 33.02912-49.93024 32.90624-51.2 0zM954.67008 502.4768c-3.58912-93.06624-173.52192-93.0304-177.10592 0-1.26976 32.90624-52.47488 33.02912-51.2 0 6.13376-159.0784 273.37728-159.10912 279.50592 0 1.27488 33.02912-49.93024 32.90624-51.2 0zM151.6288 850.67776C98.29376 866.432 67.44576 768.9472 56.2688 736.74752 29.98272 661.03296 14.5664 570.53184 31.2832 490.66496c6.7584-32.31232 56.11008-18.60096 49.37216 13.60896-11.16672 53.36064-1.1776 125.19424 13.65504 181.85728 9.71264 37.11488 22.2976 76.48256 44.93824 107.97568 4.53632 6.31296 11.58144 8.8576 5.45792 6.42048 2.6112 1.03936-3.47648-0.17408-6.69184 0.77824 31.744-9.37472 45.20448 40.04352 13.61408 49.37216zM904.2176 802.304c-6.88128-3.05152-7.23968-3.59424-12.8-2.45248 2.88256-0.59392-5.14048 3.072 1.08032-0.6144 0.8704-0.512 2.56-2.2016 6.22592-6.30272 23.82336-26.6752 33.79712-70.50752 43.09504-103.7056 15.68768-56.00256 24.70912-129.01376 13.66016-181.86752-6.73792-32.21504 42.60864-45.92128 49.37216-13.60896 16.83456 80.46592 0.41984 169.54368-24.99072 246.05184-11.97568 36.06528-45.13792 131.6864-101.46816 106.70592-30.13632-13.35808-4.06016-57.46688 25.82528-44.20608zM876.49792 106.3424v-91.54048c0-13.96736 8.0896-59.6224-14.65344-59.6224H173.30688c-25.96864 0-15.28832 68.51584-15.28832 84.11648v308.87424c0 33.01376-51.2 33.01376-51.2 0v-367.95904c0-34.95936 13.85472-64.67584 50.35008-74.69568 11.69408-3.21024 26.41408-1.536 38.38464-1.536h607.42144c37.00736 0 87.6544-8.33024 112.1792 26.35776 17.79712 25.18016 12.544 60.08832 12.544 89.31328v86.68672c0 33.01888-51.2 33.01888-51.2 0.00512zM882.11968 406.69696v-168.448c0-33.01376 51.2-33.01376 51.2 0v168.448c0 33.01376-51.2 33.01376-51.2 0zM444.34432-69.9392v183.2192 77.55776c0 2.4576 69.61664 1.16224 75.83744 1.16224 5.0432 0 70.72256 0.56832 70.72256-0.52224V-69.9392c0-33.00864 51.2-33.00864 51.2 0v187.904 73.51296c0 44.60032-40.44288 51.72224-75.0592 51.72224H454.7328c-34.37568 0-61.58848-18.6624-61.58848-55.72608v-257.42336c0-32.9984 51.2-32.9984 51.2 0.01024z"  horiz-adv-x="1024" />

    
    <glyph glyph-name="shuaxin" unicode="&#59266;" d="M158.72 824.07936c-3.2-11.20256 12.89216-27.5968 25.6-30.72l97.28-20.48c-145.408-78.848-230.4-229.9392-230.4-397.03552 0-249.86624 206.5664-452.88448 460.8-452.88448s460.8 203.01824 460.8 452.88448a452.77696 452.77696 0 0 1-226.432 389.632c-11.136 6.25152-28.32896 3.75808-34.688-7.95648a28.08832 28.08832 0 0 1 10.24-35.84 400.24064 400.24064 0 0 0 199.68-348.16c0-224.1024-181.59104-399.36-409.6-399.36s-409.6 175.2576-409.6 399.36c0 155.38688 81.13152 295.58784 220.16 363.52l-25.6-128c-3.1744-12.4928 6.8864-24.71424 19.59424-27.83232a23.71072 23.71072 0 0 1 28.60544 17.1776l42.10176 175.68768v5.46304a22.71744 22.71744 0 0 1-18.26816 22.64576l-178.75456 41.38496C171.27936 849.77664 161.92 835.2768 158.72 824.07936z"  horiz-adv-x="1024" />

    
    <glyph glyph-name="fork" unicode="&#58907;" d="M561.17013333 386.93973333L858.02666667 682.26026667c14.03733333 13.968 14.1088 36.60053333 0.1408 50.63786666-13.99893333 14.06826667-36.592 14.10773333-50.62933334 0.1408L510.6048 437.68533333 216.256 732.93013333c-13.9328 13.96693333-36.59733333 14.03733333-50.63466667 0.07146667-14.00426667-13.96586667-14.03733333-36.63146667-0.0704-50.6688l294.27733334-295.1744-296.71466667-295.14026667c-14.0384-13.968-14.1088-36.59733333-0.14293333-50.63786666a35.7216 35.7216 0 0 1 25.3856-10.56c9.13066667 0 18.26666667 3.4688 25.25013333 10.4192l296.78613333 295.2128L807.4304 38.51733333000004c6.9824-7.02186667 16.15253333-10.53013333 25.35253333-10.53013333a35.72906667 35.72906667 0 0 1 25.28213334 10.45973333c13.99893333 13.96586667 14.03733333 36.592 0.07146666 50.62933334L561.17013333 386.93973333z m0 0"  horiz-adv-x="1024" />

    
    <glyph glyph-name="weixuanzhong" unicode="&#58896;" d="M823.1-49.3H204c-67.6 0-122.7 55-122.7 122.7V692.5c0 67.6 55 122.7 122.7 122.7h619.1c67.6 0 122.7-55 122.7-122.7v-619.1c0-67.7-55.1-122.7-122.7-122.7zM204 757.8c-36 0-65.4-29.3-65.4-65.4v-619.1c0-36 29.3-65.4 65.4-65.4h619.1c36 0 65.4 29.3 65.4 65.4V692.5c0 36-29.3 65.4-65.4 65.4H204z"  horiz-adv-x="1024" />

    
    <glyph glyph-name="xianshangtuikuan" unicode="&#59128;" d="M883.989333 315.328a32.213333 32.213333 0 0 0-32 32S853.333333 375.253333 853.333333 384a363.114667 363.114667 0 1 1-226.901333-336.149333 53.056 53.056 0 0 0 12.906667 2.133333 32 32 0 0 0 32-32 33.578667 33.578667 0 0 0-23.061334-30.208A426.496 426.496 0 1 0 917.333333 384c0-6.229333 7.552-68.672-33.344-68.672zM650.666667 405.333333h-128v-64h85.333333a32 32 0 0 0 0-64h-85.333333v-74.666666a32 32 0 0 0-64 0V277.333333h-85.333334a32 32 0 0 0 0 64h85.333334v64h-128a32 32 0 0 0 0 64h95.168l-35.605334 61.674667a26.666667 26.666667 0 0 0 46.186667 26.666667l37.333333-64.661334a26.24 26.24 0 0 0 1.002667-23.68h42.496a26.176 26.176 0 0 0 0.981333 23.68l37.333334 64.661334a26.666667 26.666667 0 0 0 46.186666-26.666667L566.144 469.333333H650.666667a32 32 0 0 0 0-64zM951.808 117.141333l-87.68-87.68a26.666667 26.666667 0 1 0-37.717333 37.717334L865.898667 106.666667H650.666667a32 32 0 0 0 0 64h215.616l-39.637334 39.658666a26.666667 26.666667 0 1 0 37.696 37.696l87.68-87.68A91.925333 91.925333 0 0 0 960 138.666667a64.234667 64.234667 0 0 0-8.192-21.525334z"  horiz-adv-x="1024" />

    
    <glyph glyph-name="guanbi1" unicode="&#58888;" d="M583.168 372.224L958.464 747.52c18.944 18.944 18.944 50.176 0 69.12l-2.048 2.048c-18.944 18.944-50.176 18.944-69.12 0L512 442.88 136.704 818.688c-18.944 18.944-50.176 18.944-69.12 0l-2.048-2.048c-19.456-18.944-19.456-50.176 0-69.12l375.296-375.296L65.536-3.072c-18.944-18.944-18.944-50.176 0-69.12l2.048-2.048c18.944-18.944 50.176-18.944 69.12 0L512 301.056 887.296-74.24c18.944-18.944 50.176-18.944 69.12 0l2.048 2.048c18.944 18.944 18.944 50.176 0 69.12L583.168 372.224z"  horiz-adv-x="1024" />

    
    <glyph glyph-name="yuyue" unicode="&#58906;" d="M788.67 117.29999999999995h-67.409c-17.673 0-32 14.327-32 32s14.327 32 32 32h67.409c17.673 0 32-14.327 32-32s-14.327-32-32-32zM461 22H190.608C141.75 22 102 61.75 102 110.60799999999995v537c0 48.859 39.75 88.608 88.608 88.608h625.784c48.859 0 88.608-39.75 88.608-88.608V541c0-17.673-14.327-32-32-32s-32 14.327-32 32V647.608c0 13.569-11.039 24.608-24.608 24.608H190.608c-13.569 0-24.608-11.039-24.608-24.608v-537C166 97.03899999999999 177.039 86 190.608 86H461c17.673 0 32-14.327 32-32s-14.327-32-32-32zM744.045-30.700000000000045c-118.141 0-214.254 96.114-214.254 214.254s96.114 214.254 214.254 214.254S958.3 301.69500000000005 958.3 183.55399999999997 862.186-30.700000000000045 744.045-30.700000000000045z m0 358.008c-79.266 0-143.754-64.488-143.754-143.754S664.779 39.799999999999955 744.045 39.799999999999955s143.754 64.488 143.754 143.754-64.487 143.754-143.754 143.754zM720.6 125.89200000000005c-17.673 0-32 14.327-32 32V225.29999999999995c0 17.673 14.327 32 32 32s32-14.327 32-32v-67.408c0-17.673-14.328-32-32-32zM162.817 475.002l0.173 64 742.003-2.004-0.173-64zM333.794 797.848h64v-213.335h-64zM617.354 796.736h64v-213.335h-64zM224 382h221.511v-64H224zM226.576 249h221.511v-64H226.576z"  horiz-adv-x="1024" />

    
    <glyph glyph-name="xiaofeijilu1" unicode="&#58908;" d="M757.248 829.44H123.904C70.144 829.44 26.112 784.896 26.112 731.136v-694.784c0-53.76 44.032-97.792 97.792-97.792h382.464c16.896 0 30.72 13.824 30.72 30.72s-13.824 30.72-30.72 30.72H123.904c-19.968 0-36.352 16.384-36.352 36.352V731.648c0 19.968 16.384 36.352 36.352 36.352H757.76c19.968 0 36.352-16.384 36.352-36.352v-181.248c0-16.896 13.824-30.72 30.72-30.72s30.72 13.824 30.72 30.72V731.136c0 53.76-44.032 98.304-98.304 98.304zM645.632 566.784H199.68c-16.896 0-30.72 13.824-30.72 30.72s13.824 30.72 30.72 30.72h445.952c16.896 0 30.72-13.824 30.72-30.72s-13.824-30.72-30.72-30.72zM382.976 407.04H199.68c-16.896 0-30.72 13.824-30.72 30.72s13.824 30.72 30.72 30.72h183.296c16.896 0 30.72-13.824 30.72-30.72s-13.824-30.72-30.72-30.72zM952.32-58.368l-129.536 129.536c-11.776 11.776-11.776 31.744 0 43.52s31.744 11.776 43.52 0l129.536-129.536c11.776-11.776 11.776-31.744 0-43.52s-31.232-11.776-43.52 0zM296.448 240.64H199.68c-16.896 0-30.72 13.824-30.72 30.72s13.824 30.72 30.72 30.72h96.768c16.896 0 30.72-13.824 30.72-30.72s-13.824-30.72-30.72-30.72zM690.176 431.104c101.888 0 184.32-82.432 184.32-184.32s-82.432-184.32-184.32-184.32-184.32 82.432-184.32 184.32 82.944 184.32 184.32 184.32m0 61.44c-135.68 0-245.76-110.08-245.76-245.76s110.08-245.76 245.76-245.76 245.76 110.08 245.76 245.76-110.08 245.76-245.76 245.76z"  horiz-adv-x="1024" />

    
    <glyph glyph-name="riqi" unicode="&#59029;" d="M326.656 608.93866667h9.728c11.776 0 21.504 9.728 21.504 21.504V776.87466667c0 14.336-11.776 26.112-26.112 26.112-14.848 0-26.624-11.776-26.624-26.624v-136.192c0.512-25.6 6.656-31.232 21.504-31.232z m335.872 0h10.24c11.776 0 21.504 9.728 21.504 21.504V775.33866667c0 15.36-12.288 27.648-27.648 27.648-13.824 0-25.088-11.264-25.088-25.088v-137.728c0-20.48 5.632-31.232 20.992-31.232z m146.944 136.192h-89.088v-57.856h89.088c31.744 0 57.856-26.112 57.856-57.856v-57.856H132.096V624.29866667c0 34.816 28.16 62.976 62.976 62.976h78.848V745.13066667H195.072c-62.976 0-115.712-62.976-115.712-120.832v-503.808c0-57.856 52.736-125.952 115.712-125.952h619.52c57.856 0 104.96 62.976 104.96 125.952V624.29866667c-5.12 57.856-47.104 120.832-110.08 120.832z m57.856-619.52c0-43.52-35.328-78.848-78.848-78.848H200.192c-34.816 0-62.976 28.16-62.976 62.976V513.70666667h729.6v-388.096z m-251.904 619.52H389.632v-57.856h225.792V745.13066667z m0 0M712.192 349.35466667000003c-1.024 14.848-14.336 26.112-29.184 26.112H315.904c-17.92 0-29.184-17.408-29.184-29.184 0-17.408 11.776-29.184 29.184-29.184h367.616c18.432 0 30.208 13.312 28.672 32.256zM394.752 270.50666666999996c-17.92 0-29.184-17.408-29.184-29.184 0-17.408 11.776-29.184 29.184-29.184h209.92c14.848 0 28.16 11.264 29.184 26.112 1.536 18.944-10.752 32.256-29.184 32.256h-209.92z"  horiz-adv-x="1024" />

    
    <glyph glyph-name="money" unicode="&#58912;" d="M463.3-62.3V123.9H228.8v77.5h234.5v80.5H228.8v83.5H420L191.5 768h113.7L469 475.4c18.2-33.4 32.4-62.4 42.7-86.9 9 19.8 24.6 50.5 46.8 92.1L713.9 768h120.8L605.5 365.4h192.9v-83.5H564.9v-80.5h233.5v-77.5H564.9v-186.2H463.3z"  horiz-adv-x="1024" />

    
    <glyph glyph-name="liulan" unicode="&#59006;" d="M511.587429 622.053183C276.42224 622.053183 155.951652 384.412571 155.951652 384.412571s90.765512-237.640612 356.460919-237.640613c240.116035 0 356.460919 236.815471 356.460918 236.815471S750.878324 622.053183 511.587429 622.053183z m0.825142-386.991136c-85.814666 0-148.525383 65.18614-148.525383 148.525382s61.885576 148.525383 148.525383 148.525383 148.525383-65.18614 148.525382-148.525383-62.710717-148.525383-148.525382-148.525382z m0 238.465753c-49.508461 0-89.11523-41.257051-89.11523-89.115229 0-47.858179 39.606769-89.11523 89.11523-89.11523 49.508461 0 89.11523 41.257051 89.115229 89.11523 0 47.033038-39.606769 89.11523-89.115229 89.115229z"  horiz-adv-x="1024" />

    
    <glyph glyph-name="renwuguanli" unicode="&#58920;" d="M848 832H176c-30.9 0-56-25.1-56-56v-784c0-30.9 25.1-56 56-56h672c30.9 0 56 25.1 56 56V776c0 30.9-25.1 56-56 56z m-196-56h84v-197.3L672.8 604l-20.8 8.3-20.8-8.3-63.2-25.3V776h84z m196-784H176V776h336v-238.6c0-16.1 13.2-28 28-28 3.4 0 7 0.6 10.4 2L652 552l101.6-40.6c3.5-1.4 7-2 10.4-2 14.8 0 28 12 28 28V776h56v-784zM288 328h224c15.5 0 28 12.5 28 28s-12.5 28-28 28H288c-15.5 0-28-12.5-28-28s12.5-28 28-28z m448-112H288c-15.5 0-28-12.5-28-28s12.5-28 28-28h448c15.5 0 28 12.5 28 28s-12.5 28-28 28z"  horiz-adv-x="1024" />

    
    <glyph glyph-name="xiala1" unicode="&#58943;" d="M896 544a32 32 0 0 1-32 32c-8.288 0-15.776-3.232-21.456-8.4l-0.08 0.08L512 267.248 181.52 567.68l-0.08-0.08A31.744 31.744 0 0 1 160 576a32 32 0 0 1-32-32c0-9.392 4.112-17.744 10.544-23.6l-0.064-0.08 352-320 0.064 0.08c5.68-5.168 13.168-8.4 21.456-8.4s15.776 3.232 21.456 8.416l0.08-0.08 352 320-0.08 0.08c6.432 5.84 10.544 14.208 10.544 23.584z"  horiz-adv-x="1024" />

    
    <glyph glyph-name="gouxuan" unicode="&#58919;" d="M113.92 465.92a48 48 0 0 1-67.84-67.84l320-320a48 48 0 0 1 67.84 0l544 544a48 48 0 0 1-67.84 67.84L400 179.904l-286.08 286.08z"  horiz-adv-x="1024" />

    
    <glyph glyph-name="sousuo" unicode="&#59021;" d="M740.2496 199.816533l106.5984-105.745066-44.919467-43.690667-105.984 105.130667A339.968 339.968 0 0 0 477.866667 76.8C289.348267 76.8 136.533333 229.614933 136.533333 418.133333S289.348267 759.466667 477.866667 759.466667s341.333333-152.814933 341.333333-341.333334a339.968 339.968 0 0 0-78.9504-218.3168zM477.866667 145.066667a273.066667 273.066667 0 1 1 0 546.133333 273.066667 273.066667 0 0 1 0-546.133333z"  horiz-adv-x="1024" />

    
    <glyph glyph-name="dayin" unicode="&#58914;" d="M266.4 69.4c0-44.3 36.3-80.1 80.1-80.1h334.2c44.3 0 80.1 36.3 80.1 80.1V214.1h-495v-144.7h0.6z m79 97.7h337.4c13.9 0 25.1-11.2 25.1-25.1 0-13.9-11.2-25.1-25.1-25.1H345.4c-13.9 0-25.1 11.2-25.1 25.1 0 13.9 11.3 25.1 25.1 25.1z m0-74.7h337.4c13.9 0 25.1-11.2 25.1-25.1 0-13.9-11.2-25.1-25.1-25.1H345.4c-13.9 0-25.1 11.2-25.1 25.1 0 13.8 11.3 25.1 25.1 25.1zM761.4 710.1c0 36.3-29.9 66.2-66.2 66.2H332.1c-36.3 0-66.2-29.9-66.2-66.2v-85.4h495v85.4h0.5zM804.1 649.2V582H223.7V649.3c-39.5-1.6-71.5-34.2-71.5-74.2v-315.6c0-40 32-72.6 71.5-74.2v71.5H804.1v-71.5c39.5 1.6 71.5 34.2 71.5 74.2V575c0 40.1-31.5 72.6-71.5 74.2zM481.6 490.7H284c-9.6 0-17.6 8-17.6 17.6s8 17.6 17.6 17.6h197.6c9.6 0 17.6-8 17.6-17.6-0.5-9.6-8-17.6-17.6-17.6z"  horiz-adv-x="1024" />

    
    <glyph glyph-name="xuanzhong" unicode="&#58913;" d="M896-64H128c-35.2 0-64 28.8-64 64V768c0 35.2 28.8 64 64 64h768c35.2 0 64-28.8 64-64v-768c0-35.2-28.8-64-64-64zM738 587.6L422.3 271.9 286 408.2l-45.3-45.3L377 226.6l-1-1 45.3-45.2 362 362z"  horiz-adv-x="1024" />

    
    <glyph glyph-name="xiaoxi" unicode="&#58911;" d="M512 686.545455a209.454545 209.454545 0 0 0 209.454545-209.454546v-248.552727a91.694545 91.694545 0 0 1 17.454546-53.992727l33.047273-46.545455H252.043636l33.047273 46.545455a91.694545 91.694545 0 0 1 17.454546 53.992727V477.090909a209.454545 209.454545 0 0 0 209.454545 209.454546m0 69.818181a279.272727 279.272727 0 0 1-279.272727-279.272727v-248.552727a23.272727 23.272727 0 0 0-4.421818-13.498182l-59.345455-83.316364A46.545455 46.545455 0 0 1 206.894545 58.181818h610.21091a46.545455 46.545455 0 0 1 37.934545 73.541818l-59.345455 83.316364a23.272727 23.272727 0 0 0-4.421818 13.498182V477.090909A279.272727 279.272727 0 0 1 512 756.363636zM535.272727 779.636364h-46.545454a34.909091 34.909091 0 0 0 0 69.818181h46.545454a34.909091 34.909091 0 0 0 0-69.818181zM593.454545-58.181818h-139.636363a34.909091 34.909091 0 0 0 0 69.818182h139.636363a34.909091 34.909091 0 0 0 0-69.818182z"  horiz-adv-x="1024" />

    
    <glyph glyph-name="tuifei" unicode="&#58989;" d="M512.1 831.8C264.6 831.8 64 631.2 64 383.7s200.6-448.1 448.1-448.1 448.1 200.6 448.1 448.1S759.6 831.8 512.1 831.8z m405.8-551.1L835.8 240c-2.9-1.4-5.9-2.1-8.9-2.1h-1.4c-6.9 0.5-13.3 4.5-16.5 11.1l-40.7 82.1c-4.9 9.9-0.9 21.9 9 26.8 9.9 4.9 21.9 0.9 26.8-9l19.6-39.5c18.3 75.7 8.8 154.4-27.5 224.2-39.7 76.4-106.8 132.7-188.9 158.6-82.1 25.8-169.3 18.2-245.7-21.5-76.4-39.8-132.7-106.9-158.6-189-53.4-169.4 41-350.8 210.4-404.3 121.1-38.2 253.8-1.5 338.1 93.4 7.3 8.3 20 9 28.2 1.7 8.3-7.3 9-20 1.7-28.2-45.8-51.6-105.2-88.9-171.8-108-32.5-9.3-65.8-13.9-99.2-13.9-36.7 0-73.5 5.6-109.1 16.9-46.6 14.7-89 38.1-125.9 69.6-35.7 30.4-64.7 66.9-86.5 108.7-21.7 41.7-35 86.5-39.4 133.2-4.6 48.3 0.5 96.4 15.3 143s38.1 89 69.6 125.9c30.4 35.7 66.9 64.7 108.7 86.5 41.7 21.7 86.5 35 133.2 39.4 48.3 4.6 96.4-0.6 143-15.3s89-38.1 125.9-69.6c35.6-30.4 64.7-66.9 86.5-108.7 21.7-41.7 35-86.5 39.4-133.2 3.9-40.8 0.8-81.5-9.1-121.2l38.1 18.9c9.9 4.9 21.9 0.9 26.8-9 4.9-9.9 0.9-21.9-9-26.8z m-325 80.5c11.1 0 20-9 20-20s-8.9-20-20-20h-60.8v-76.6c0-11-8.9-20-20-20-11 0-20 9-20 20v76.6h-60.8c-11 0-20 9-20 20s9 20 20 20h60.8v47h-60.8c-11 0-20 9-20 20s9 20 20 20H483l-60.5 60.5c-7.8 7.8-7.8 20.5 0 28.3s20.5 7.8 28.3 0l61.3-61.3 61.3 61.3c7.8 7.8 20.5 7.8 28.3 0 7.8-7.8 7.8-20.5 0-28.3l-60.5-60.5h51.7c11.1 0 20-9 20-20s-8.9-20-20-20h-60.8v-47h60.8z"  horiz-adv-x="1024" />

    
    <glyph glyph-name="renshu" unicode="&#58898;" d="M406.6 565.5m-176.6 0a176.6 176.6 0 1 1 353.2 0 176.6 176.6 0 1 1-353.2 0ZM491.2 378.9H352.4C191.7 378.9 61.5 248.70000000000005 61.5 88c0-48.5 39.4-87.9 87.9-87.9h528.2c38.1 0 69 30.9 69 69v54.4c0 141-114.4 255.4-255.4 255.4zM605.8 566.9c0-46.7-17-89.4-45.2-122.3-3.3-3.8-3.1-9.5 0.4-13.2 24.4-25.3 58.7-41 96.6-41 74.6 0 135 60.7 134.5 135.4-0.5 73-59.9 132.7-132.9 133.5-20.6 0.2-40.1-4.1-57.6-12.2-6.2-2.9-9.3-10-7-16.4 7.3-19.8 11.2-41.3 11.2-63.8zM681.8 368.5H643c-7.9 0-10.8-10.4-4-14.5 77.3-45.9 129.1-130.2 129.1-226.7v-56.1c0-15.1-4.7-29.1-12.8-40.7-3.6-5.1 0-12.2 6.3-12.2H854c35.2 0 63.8 28.6 63.8 63.8v50.2c0 130.5-105.7 236.2-236 236.2z"  horiz-adv-x="1024" />

    
    <glyph glyph-name="zhankai" unicode="&#58904;" d="M265.216 398.336L54.272 538.624v-281.6l210.944 141.312z m0 0M868.352 46.08H87.04c-17.408 0-30.72 14.336-30.72 30.72 0 17.408 14.336 30.72 30.72 30.72h781.312c17.408 0 30.72-14.336 30.72-30.72s-14.336-30.72-30.72-30.72zM868.352 687.104H87.04c-17.408 0-30.72 14.336-30.72 30.72 0 17.408 14.336 30.72 30.72 30.72h781.312c17.408 0 30.72-14.336 30.72-30.72 0-17.408-14.336-30.72-30.72-30.72zM868.352 273.408h-430.08c-17.408 0-30.72 14.336-30.72 30.72 0 17.408 14.336 30.72 30.72 30.72h430.08c17.408 0 30.72-14.336 30.72-30.72s-14.336-30.72-30.72-30.72zM868.352 486.4h-430.08c-17.408 0-30.72 14.336-30.72 30.72 0 17.408 14.336 30.72 30.72 30.72h430.08c17.408 0 30.72-14.336 30.72-30.72s-14.336-30.72-30.72-30.72z"  horiz-adv-x="1024" />

    
    <glyph glyph-name="guanbi" unicode="&#58917;" d="M899.072 257.024V538.624L688.128 398.336l210.944-141.312zM868.352 46.08H87.04c-17.408 0-30.72 14.336-30.72 30.72 0 17.408 14.336 30.72 30.72 30.72h781.312c17.408 0 30.72-14.336 30.72-30.72s-14.336-30.72-30.72-30.72zM868.352 687.104H87.04c-17.408 0-30.72 14.336-30.72 30.72 0 17.408 14.336 30.72 30.72 30.72h781.312c17.408 0 30.72-14.336 30.72-30.72 0-17.408-14.336-30.72-30.72-30.72zM517.12 273.408h-430.08c-17.408 0-30.72 14.336-30.72 30.72 0 17.408 14.336 30.72 30.72 30.72h430.08c17.408 0 30.72-14.336 30.72-30.72s-13.312-30.72-30.72-30.72zM517.12 486.4h-430.08c-17.408 0-30.72 14.336-30.72 30.72 0 17.408 14.336 30.72 30.72 30.72h430.08c17.408 0 30.72-14.336 30.72-30.72s-13.312-30.72-30.72-30.72z"  horiz-adv-x="1024" />

    
    <glyph glyph-name="yuangong1" unicode="&#58929;" d="M377.344 367.616c-127.488 0-230.912 103.424-230.912 230.912C146.432 726.016 249.856 829.44 377.344 829.44c127.488 0 230.912-103.424 230.912-230.912 0-126.976-103.424-230.912-230.912-230.912z m0 413.696C276.48 781.312 194.56 699.392 194.56 598.528s81.92-182.784 182.784-182.784c100.864 0 182.784 81.92 182.784 182.784s-81.92 182.784-182.784 182.784z m0 0M598.528 378.368c-12.288 0-22.528 9.216-24.064 21.504-1.536 12.288 6.656 23.552 18.432 26.112 82.944 19.456 141.312 92.672 141.312 177.664 0 105.472-75.776 187.904-172.544 187.904-13.312 0-24.064 10.752-24.064 24.064s10.752 24.064 24.064 24.064c123.904 0 220.672-103.936 220.672-236.032 0-108.032-73.216-200.704-178.688-224.768-1.536-0.512-3.584-0.512-5.12-0.512z m0 0M400.896-26.112c-293.376 0-356.864 58.88-363.008 65.536-4.096 4.608-6.144 10.24-6.656 15.872v6.656c0 190.464 155.136 345.6 345.6 345.6s345.6-155.136 345.6-345.6c0-7.68-3.584-15.36-10.24-19.968-4.096-2.56-98.816-68.608-300.544-68.608l-10.752 0.512z m-321.536 94.72c22.016-12.8 101.888-46.08 321.024-46.08h10.24c148.992 0 233.984 38.4 262.656 53.248-7.168 157.696-137.216 283.648-296.448 283.648-161.792 0-293.888-130.048-297.472-290.816z m792.064-15.36c-13.312 0-24.064 10.752-24.064 24.064 0 165.888-147.456 281.088-249.856 297.472-6.144 1.024-11.776 4.608-15.872 9.728-3.584 5.12-5.12 11.776-4.096 17.92 2.048 13.312 14.336 22.016 27.648 19.968 118.784-18.944 290.304-152.576 290.304-345.088 0.512-12.8-10.24-24.064-24.064-24.064z m0 0"  horiz-adv-x="1024" />

    
    <glyph glyph-name="zhifubaozhifu" unicode="&#58921;" d="M846.598919 896H161.293838A161.736649 161.736649 0 0 1 0 734.761514v-683.257082a161.736649 161.736649 0 0 1 161.293838-161.238486h685.305081a161.736649 161.736649 0 0 1 161.238486 161.238486v6.033298s-261.922595 108.876108-394.765837 173.360432c-88.562162-108.820757-203.58227-175.353081-322.532325-175.353081-199.264865 0-268.066595 175.353081-173.360432 290.207135 20.147892 24.188541 56.458378 48.377081 110.702703 62.491676 86.680216 22.140541 223.730162-12.066595 350.761513-54.410378a719.567568 719.567568 0 0 1 56.569081 139.042594H239.892757v40.351135h203.58227V601.752216H197.548973v40.295784h245.926054V744.835459a17.712432 17.712432 0 0 0 18.099892 18.099892h98.802162v-118.894702h243.878054v-40.295784h-243.878054v-70.517622h199.541622A860.99027 860.99027 0 0 0 675.286486 321.563676c60.443676-22.140541 114.854054-42.288432 154.983784-56.403027 145.131243-48.377081 177.124324-52.41773 177.124325-52.41773V734.761514A161.736649 161.736649 0 0 1 846.598919 896z m0 0M245.926054 349.792865c-26.181189-1.992649-72.565622-14.114595-98.746811-36.255135-78.65427-68.524973-32.269838-191.460324 124.928-191.460325 90.720865 0 181.44173 58.451027 256 151.10919-102.787459 50.425081-189.467676 86.680216-282.291892 76.60627z m0 0"  horiz-adv-x="1033" />

    
    <glyph glyph-name="chongzhikazhifu" unicode="&#58922;" d="M313.700567 829.954312l66.045687-85.890823h231.137458l66.180383 85.890823 6.600079 13.200158V849.754549c0 13.245056-6.600079 19.845135-19.800236 26.445214 0 0-92.490902 19.800237-171.736748 19.800237S320.435341 876.199763 320.435341 876.199763c-33.045293-13.200158-6.600079-46.245451-6.600079-46.245451z m316.983382-145.291533H392.946412c-184.936905-66.045688-336.738721-270.78283-336.73872-462.45451 0-237.962029 132.091375-350.208269 455.719735-350.208269s455.674837 112.24624 455.674837 350.208269c0 191.536984-151.891612 396.274126-336.738721 462.45451z m46.380146-488.72013a26.445214 26.445214 0 0 0 0-52.84553h-132.22607v-92.446003a26.445214 26.445214 0 1 0-52.84553 0v85.845924H359.901119a26.445214 26.445214 0 0 0 0 52.84553h132.091376v72.645767H359.901119a26.445214 26.445214 0 0 0 0 52.84553h138.691455v6.600079a6.465383 6.465383 0 0 0-6.600079 6.600079L386.346333 453.525321c-13.200158 6.600079-13.200158 26.400316 0 39.600474a24.828868 24.828868 0 0 0 39.600474-6.600079l92.490902-105.646161 92.446003 105.646161c13.200158 13.200158 26.400316 13.200158 39.645372 6.600079 13.200158-13.200158 13.200158-26.400316 6.600079-39.600474L551.348306 328.034025c0-6.600079-6.600079-6.600079-13.200157-6.600079h138.915946a26.445214 26.445214 0 0 0 0-52.84553h-132.22607v-72.645767z m0 0"  horiz-adv-x="1024" />

    
    <glyph glyph-name="qita" unicode="&#58923;" d="M229.842544 357.330134h151.163367v-44.535093H229.842544zM229.842544 494.211558h151.163367v-40.439912H229.842544zM858.043303 896H165.752962A166.110778 166.110778 0 0 1 0.000512 729.479704v-691.061788a166.110778 166.110778 0 0 1 165.75245-166.213157h692.290341A166.110778 166.110778 0 0 1 1023.795753 38.315537v691.061788A166.469106 166.469106 0 0 1 858.043303 896zM125.26186 312.795041h74.737052V494.211558H136.677177v28.615077h63.321735v46.992201h29.843632v-46.992201h151.214557v46.992201h30.201959v-46.992201h65.369326v-28.615077H411.25906v-181.416517H486.303251v-28.154369H125.26186z m15.920016-114.818636a212.335133 212.335133 0 0 1-20.015197 23.291341c44.125575 13.053389 99.666467 36.344731 128.281543 55.95041L276.425227 258.482703c-36.344731-22.523495-91.527295-45.814837-135.243351-60.506298z m319.116976 0.819036a856.455909 856.455909 0 0 1-124.64707 57.332533l20.475905 19.196161a991.136173 991.136173 0 0 0 131.19936-56.308738z m146.505099-0.819036h-29.792441V427.613677a472.942212 472.942212 0 0 0-40.491102-49.44931 211.413717 211.413717 0 0 1-17.14857 28.615077c40.030394 39.262547 78.064387 100.127175 100.895021 162.220356l27.796041-8.59988a635.879224 635.879224 0 0 0-41.258949-86.203559z m236.189562 5.118976h-106.679464c-48.169566 0-62.912218 11.415317-62.912217 56.0016v132.581483l-39.620876-15.356928-11.824835 26.516296 51.445711 20.066387v107.4985h29.843631v-95.622475L762.727967 457.866827V569.818836h29.024595V468.872625l63.731253 24.519896 3.685663 3.276145 5.118976 4.504699 21.294941-8.54869-1.228554-5.118976c0-73.559688-1.228554-132.376725-5.118976-149.525295-3.276145-18.786643-11.824835-26.567487-24.519896-29.792442a167.90242 167.90242 0 0 0-41.258948-2.866626 92.141572 92.141572 0 0 1-7.371326 28.563887c11.056989-0.819036 25.594881-0.819036 31.072186-0.819036 7.371326 0 11.466507 1.638072 13.923615 12.285543 3.276145 11.005799 4.043991 53.902819 4.453509 117.736452l-63.628874-25.236552v-149.986003H762.727967V426.385123l-59.636073-23.70086v-143.792041c0-23.291342 5.118976-28.615077 33.887622-28.615077h104.631874c24.929414 0 29.024595 11.005799 32.659068 59.226554a89.428514 89.428514 0 0 1 28.205559-12.695061c-5.118976-55.95041-14.537892-73.918016-59.482504-73.918016zM229.842544 427.613677h151.163367v-44.125575H229.842544z"  horiz-adv-x="1024" />

    
    <glyph glyph-name="xianjinzhifu" unicode="&#58924;" d="M803.551984 344.976394a275.543948 275.543948 0 0 1 0 551.023606c-153.072828 0-282.872928-114.820693-282.872928-267.829232a282.487192 282.487192 0 0 1 282.872928-282.872928z m-84.218986 260.178804c-15.300854 0-30.601708 7.650427-30.601707 23.01557s15.300854 22.951281 30.601707 22.951281h45.966851l-45.966851 45.902562c-15.300854 15.300854-15.300854 30.601708 0 38.573581s23.01557 7.650427 38.573582 0l45.902561-45.902562 45.838272 45.581115c15.300854 15.300854 30.601708 15.300854 38.252135 0s7.650427-22.951281 0-38.573581l-45.902562-45.902561h30.601708c15.300854 0 30.601708-7.650427 30.601708-22.951281s-15.300854-23.01557-30.601708-23.01557h-46.095429v-22.951281h53.552988c15.300854 0 30.601708-7.650427 30.601708-22.951281S895.357107 535.97991 880.056253 535.97991h-45.902561v-30.601708c0-15.300854-7.650427-30.601708-22.951281-30.601708s-22.951281 15.300854-22.951281 30.601708v23.272727h-68.918132c-15.300854 0-30.601708 7.650427-30.601707 22.951281s15.300854 22.951281 30.601707 22.951281h61.267705v30.601707z m0 0M1216.803616 283.772978c-15.300854 30.601708-38.573581 45.902562-53.617277 45.902562h-30.665997l-160.723255-76.504269c0-53.617278-38.573581-99.519839-91.869412-99.51984H566.32446a22.951281 22.951281 0 1 0 0 45.902562h298.430939c22.951281 0 30.601708 15.365143 38.573581 38.573581a84.926168 84.926168 0 0 1-84.154696 84.154696H642.828729a26.68006 26.68006 0 0 1-7.650427 15.300854l-30.601707 30.601708c-38.252135 38.573581-84.154696 53.617278-145.422401 53.617277H244.877951v30.344551q0 22.951281-22.951281 22.951281H22.951281A24.429935 24.429935 0 0 1 0 452.14666v-413.251632c0-7.650427 7.650427-15.300854 22.951281-15.300854h206.625816q22.951281 0 22.951281 22.951281v38.573581l390.300351-206.625817c45.902562-15.300854 99.519839 0 130.121547 22.951281l390.236063 275.479659 7.714716 7.650427c45.902562 23.01557 61.203415 61.267705 45.902561 99.519839z m0 0"  horiz-adv-x="1222" />

    
    <glyph glyph-name="weixinzhifu" unicode="&#58925;" d="M236.083507 572.0576a43.3664 43.3664 0 1 1 43.3664 43.3152 43.264 43.264 0 0 1-43.3664-43.3152z m336.2816-223.232a33.9968 33.9968 0 1 1 33.9456 33.9968 33.9456 33.9456 0 0 1-33.9456-33.9968z m-116.0192 223.232a43.3664 43.3664 0 1 1 43.3664 43.3152 43.264 43.264 0 0 1-43.3664-43.3152z m0 0M858.214707 896H165.785907A166.144 166.144 0 0 1 0.000307 729.6512v-691.2A166.144 166.144 0 0 1 165.785907-128h692.4288A166.144 166.144 0 0 1 1024.000307 38.3488v691.2A166.5024 166.5024 0 0 1 858.214707 896zM384.307507 209.408c-38.656 0-69.7344 8.2432-108.9536 15.8208l-108.3904-54.4768 31.0272 93.1328c-77.8752 54.528-124.16 124.8256-124.16 209.92 0 147.6096 139.9808 264.192 310.4768 264.192 152.8832 0 286.464-93.1328 313.3952-217.9072a264.5504 264.5504 0 0 1-29.8496 1.7408c-147.6608 0-264.2432-110.1312-264.2432-245.4528a236.4416 236.4416 0 0 1 9.3696-65.024 227.4816 227.4816 0 0 0-28.672-1.792z m458.0864-108.3392l23.4496-77.3632-84.9408 46.8992c-31.0784-7.6288-62.1056-15.8208-93.184-15.8208-147.6096 0-264.192 100.7616-264.192 225.536s116.5824 225.28 264.192 225.28c139.4688 0 263.6288-101.376 263.6288-225.536-0.5632-70.912-46.848-133.12-108.9536-179.2z m0 0M741.632307 348.8256a33.9968 33.9968 0 1 1 33.9968 33.9968 33.6384 33.6384 0 0 1-33.9968-33.9968z m0 0"  horiz-adv-x="1024" />

    
    <glyph glyph-name="yinlianzhifu" unicode="&#58946;" d="M341.212047 106.4378l102.43506 441.586852h-3.506049a33.073727 33.073727 0 0 1-12.388039-3.506049c-1.753024-8.88199-7.070532-33.599635-10.576581-44.176215a310.285323 310.285323 0 0 1-7.070531-38.858708l-1.753025-1.753025h-44.176215l-1.753025 1.753025 10.576581 42.364756c8.823556 38.858708 10.576581 52.999772 14.141064 72.458343l1.753024 1.753025c19.458571 3.506049 24.717644 3.506049 47.682264 7.070532l1.811459-1.753025-3.564483-12.388039c3.564483 1.753024 7.070532 5.317507 10.635015 7.070532 1.753024 1.753024 3.506049 1.753024 7.012097 3.506049l52.999772 224.328692C516.10545 855.388268 565.540739 894.246976 613.223003 894.246976h-321.387811C242.341469 894.246976 194.659205 855.388268 184.082624 805.894545L21.460392 106.4378c-10.576581-49.493723 19.458571-88.293997 67.257704-88.293997h319.634786c-49.493723 0-79.528875 40.903903-67.140835 88.352431z m-31.788177 367.492353a135.508788 135.508788 0 0 0-63.576352-14.08263c-19.458571 0-52.999772 3.506049-63.634787 22.96462a35.64483 35.64483 0 0 0-7.070531 22.96462l3.564483 31.788177 1.753024 8.823556 26.529103 114.530929 1.753024 7.070532s8.823556-1.811459 58.434148 0v-1.811459c-5.259073-14.08263-30.035152-114.764666-30.035152-114.764666l-5.259073-30.035151v-5.317508a24.250171 24.250171 0 0 1 26.295366-22.789317 47.448528 47.448528 0 0 1 26.529103 8.823556c12.329605 10.576581 15.894088 26.529103 21.153161 49.493723 0 0 24.776079 111.02488 24.776079 118.329148a356.74047 356.74047 0 0 1 49.435289 0v-1.753024c-5.317507-14.141064-30.035152-120.140607-30.035152-120.140607l-3.506049-10.576581c-3.564483-22.96462-10.635015-47.682264-37.105684-63.634786z m0 0M724.540054 106.4378l26.470669 116.576124h-31.788176a26.529103 26.529103 0 0 0-12.38804 1.753024 11.686829 11.686829 0 0 0-7.070532 8.823556 91.040402 91.040402 0 0 0 3.564483 15.894089l54.752797 180.21091h38.858708l-5.317508-19.458571 5.317508 5.317508 10.518146 44.176215h-24.717644v1.753025c1.753024 7.070532 3.564483 15.894088 5.317507 22.964619l1.753025 10.576581a291.118923 291.118923 0 0 1 7.070532 42.423191c0 3.506049 1.753024 12.329605-8.823557 12.329605a54.869664 54.869664 0 0 1-14.141063-3.506049c-1.753024-8.823556-7.070532-33.599635-10.576581-44.176215a308.41543 308.41543 0 0 1-7.070532-38.858708l-1.811459-1.753024h-44.117781l-1.753024 1.753024 10.57658 42.423191a473.316594 473.316594 0 0 1 12.329606 72.399909l1.753024 1.753024c19.400137 3.564483 24.717644 3.564483 47.682264 7.070532l1.753025-1.753024-3.506049-12.38804c3.506049 1.753024 7.070532 5.317507 10.576581 7.070532a65.621548 65.621548 0 0 0 28.282127 7.070532 26.470669 26.470669 0 0 0 15.894088-3.506049l51.188313 224.328692C895.752106 857.141292 945.187395 896 994.681118 896h-383.211139C562.03469 896 514.293991 857.141292 503.600542 807.706003L452.470663 583.377311a52.999772 52.999772 0 0 0 21.211596 3.506049 26.587537 26.587537 0 0 0 24.717644-14.141064c3.564483-10.576581 1.811459-22.96462-3.506048-45.92924l-3.564483-12.329605a448.131477 448.131477 0 0 1-8.823557-49.493723l-5.259073-5.259073H433.070526v1.753025c1.753024 7.070532 3.506049 15.894088 5.317508 22.964619l1.753024 10.576581a299.475006 299.475006 0 0 1 7.070532 42.423191c0 3.506049 1.753024 10.576581-5.317507 12.329605l-102.435061-441.586852c-10.635015-49.435289 19.400137-88.293997 67.082402-88.293997h385.081031c-47.682264-1.811459-77.717416 38.858708-67.082401 86.540973z m14.08263 309.11664l-8.823557-28.282128H667.975799l-7.070532-5.259073c-3.506049-3.564483-3.506049-1.811459-7.070531-3.564483a44.760557 44.760557 0 0 0-21.153162-5.317507h-19.458571l8.823556 26.529103h5.317508c5.317507 0 8.823556 0 10.57658 1.753024a44.176215 44.176215 0 0 1 7.070532 8.823556l10.635015 21.211596h45.92924l-7.070532-15.952523zM574.364295 562.165716l-8.823556-35.64483c-1.753024-7.070532-3.506049-15.894088-5.317508-22.96462a142.287149 142.287149 0 0 0-7.070531-26.470669 73.802328 73.802328 0 0 1-3.506049-15.894088h-51.246748a55.454006 55.454006 0 0 0 5.200639 16.186259c1.753024 3.506049 1.753024 7.070532 5.317508 15.894088 3.506049 12.388039 5.259073 21.211596 7.070532 30.035152 1.753024 7.070532 5.259073 28.282127 7.012097 35.060488-1.753024 5.317507 1.811459 10.635015 8.881991 15.894088a39.73522 39.73522 0 0 0 37.047249 3.564483 10.751883 10.751883 0 0 0 5.317508-15.894088z m8.823556-40.611733a95.189226 95.189226 0 0 0 22.96462 45.870806 74.795709 74.795709 0 0 0 52.999772 17.530244c15.894088 0 33.541201-3.564483 42.423191-15.894088 5.259073-7.070532 10.576581-21.211596 5.259073-47.682264a84.378909 84.378909 0 0 0-19.400137-40.903904c-15.894088-15.894088-35.060488-21.153161-56.564254-21.153161a88.410865 88.410865 0 0 0-28.223694 5.259073c-26.529103 10.635015-22.96462 38.858708-19.458571 56.564255z m95.715134-298.540059h-51.246747a35.060488 35.060488 0 0 0-12.38804 1.753024 40.144259 40.144259 0 0 0-8.823556 5.317508c-1.753024 3.506049-5.259073 5.317507-3.506049 12.329605l14.141064 49.493723H592.011408l8.88199 28.282127h24.717644l7.070532 22.906186h-24.717644l8.823556 26.529103h111.02488l-8.823556-26.529103h-44.176215l-7.070532-22.906186h46.22141l-7.070532-28.282127h-45.929239l-10.576581-37.105684c-1.753024-3.506049 10.576581-5.317507 15.894088-5.317507l22.96462 3.564483z m0 0M788.116406 401.413376l-8.823556-30.035152a30.502625 30.502625 0 0 1 7.070532 5.317508l5.259073 24.717644z m-151.928783 84.787948c5.317507 0 8.823556 3.564483 12.388039 8.823556 5.259073 7.070532 8.823556 24.717644 10.576581 28.282128 5.317507 21.211596 3.564483 33.541201-7.070532 33.5412-14.141064 0-19.400137-17.530244-24.717644-37.105683a91.391007 91.391007 0 0 1-3.506049-19.400137c3.506049-14.141064 12.329605-14.141064 12.329605-14.141064z m111.02488-222.575668a29.976718 29.976718 0 0 1-1.811458-8.823556c1.811459-1.753024 3.564483-3.506049 5.317507-3.506049h5.317507l16.361562 68.89386h-8.823557z m28.223693 95.422963l-3.506048-12.388039h8.823556l3.506049 12.388039z m0 0M1074.268427 486.201324a24.542342 24.542342 0 0 1 17.530244 8.823556 57.732938 57.732938 0 0 1 5.317507 10.635015 62.641406 62.641406 0 0 1 3.506049 17.530244 21.795937 21.795937 0 0 1 1.811459 10.576581c1.753024 14.141064-3.564483 22.96462-12.38804 22.96462-14.141064 0-19.458571-17.530244-24.717644-37.105684a91.85848 91.85848 0 0 1-3.564483-19.400137c3.564483-14.141064 12.388039-14.141064 12.388039-14.141063z m-238.469756-139.540744l3.506049 12.388039h-56.505821l-3.506049-12.388039h47.682264c7.070532 0 8.823556-1.753024 8.823557 0z m0 0M1344.526358 892.493951h-347.975348c-49.435289 0-97.175987-38.858708-109.505592-88.352431l-51.246747-224.328692a18.17302 18.17302 0 0 0 8.823556-10.576581c3.564483-10.635015 1.753024-22.96462-3.506049-45.929239l-3.564483-12.38804a433.990413 433.990413 0 0 1-8.823556-49.435288l-1.753025-1.753025h-19.517005l-10.518146-44.23465a61.180552 61.180552 0 0 0 14.141063 8.823557 202.415887 202.415887 0 0 0 28.223694 7.070532h61.648025l-21.211595-70.646885a54.694362 54.694362 0 0 0-10.635015-22.96462 29.684547 29.684547 0 0 0-10.576581-10.635014 28.282127 28.282127 0 0 0-14.141064-5.259074h-70.413147l-15.894088-68.89386 21.211595 1.753025-8.823556-31.788176h-17.530244l-28.223694-116.576125c-10.751883-49.435289 19.224835-88.235563 66.907099-88.235562h347.975348c49.493723 0 97.175987 38.858708 109.564027 88.352431l162.505364 697.645286C1422.243775 853.635243 1392.208623 892.493951 1344.526358 892.493951z m-249.046336-309.11664a38.800274 38.800274 0 0 0 15.835654-12.388039v5.317507l1.753024 1.753025c21.211596 3.506049 26.470669 3.506049 49.435289 7.070532v-1.753025c-3.506049-15.894088-8.823556-33.599635-12.329605-49.493723-8.823556-35.060488-10.635015-52.999772-14.141064-70.646884l-1.753024-1.753024h-45.92924l-1.753024 1.753024c0 1.753024 1.753024 5.317507 1.753024 7.070532-7.070532-5.317507-14.141064-10.576581-22.96462-10.576581a62.69984 62.69984 0 0 0-24.717644 5.259073c-26.529103 10.635015-22.96462 40.903903-19.458571 56.564255a94.663319 94.663319 0 0 0 23.023054 45.870806c19.458571 15.894088 40.611732 19.400137 51.246747 15.894088z m-240.281214-123.646656l33.599634 139.540744 14.141064 63.576353a40.903903 40.903903 0 0 1 1.753025 7.070531 578.49806 578.49806 0 0 1 60.070303 0h14.141064c29.976718 0 54.752796 0 68.89386-17.530244a40.903903 40.903903 0 0 0 7.012097-24.776078c0-7.070532-1.753024-14.08263-1.753024-19.400137a96.591646 96.591646 0 0 0-33.541201-54.752796c-24.717644-19.458571-58.434147-19.458571-86.540972-19.458571h-3.564483l-3.506049-3.506049c0-1.753024-7.070532-28.282127-7.070532-28.282128s-7.070532-37.105684-8.823556-44.176215c-8.823556 1.811459-22.96462 1.811459-54.81123 1.811458z m12.388039-160.75234a28.223693 28.223693 0 0 0-7.070532-12.388039c-3.506049-3.506049-8.823556-7.070532-21.211595-7.070532h-21.153162v-19.400137c0-5.317507 1.753024-5.317507 1.753025-5.317507a5.843415 5.843415 0 0 1 3.506048-1.753024h7.070532l21.211596 1.753024-10.576581-31.788176h-22.96462c-15.894088 0-28.282127 0-33.599635 3.506049a7.947044 7.947044 0 0 0-3.506048 10.635014l1.753024 75.964392H819.904583v-15.894088h8.823556c3.564483 0 5.317507 0 7.070532 1.753024s1.753024 1.753024 1.753024 3.506049l3.564483 12.38804h30.035152z m130.717188-75.964391h-40.611733l3.506049 8.823556h-81.223465l8.823556 26.529103h8.823557l42.423191 143.046793 8.823556 28.282127h40.903903l-3.564483-14.141063a104.363387 104.363387 0 0 0 21.211596 10.57658c8.823556 1.811459 51.246747 3.564483 65.387811 3.564483h44.117781v-15.894088c0-3.564483 1.811459-3.564483 7.070532-3.564483h7.070532l-7.070532-28.223693h-22.96462c-21.153161-1.811459-28.223693 7.012098-28.223693 17.530244v15.952522l-3.564483-14.141063h-14.141064L1012.737269 260.061173h10.576581l-8.823556-28.282127h-12.329605z m181.963935 125.39968h-44.176215l-7.245835-22.96462h44.176216l-7.070532-22.96462h-47.682264l-8.823557-10.57658h19.400137l5.317508-30.035152c0-3.506049 0-5.317507 1.753024-7.070532s7.070532-1.753024 10.576581-1.753024h5.726546l-8.823556-30.035152h-24.717644c-5.317507 0-7.070532 3.506049-10.635015 5.317507a11.686829 11.686829 0 0 0-7.070532 10.576581l-5.259073 30.035152-21.211596-30.035152a37.573157 37.573157 0 0 0-31.788176-15.894088h-30.035152l8.823556 26.470669h12.38804a75.204748 75.204748 0 0 1 8.823556 1.811458 75.964392 75.964392 0 0 1 7.070532 5.259073l31.788176 44.176216h-42.423191l7.070532 24.717644h47.565396l7.070532 22.96462h-47.974435l8.823556 26.529103h132.470212z m28.223693 83.034924l-1.753024-1.753025-17.530244-30.035151a33.073727 33.073727 0 0 0-31.788177-17.530245h-26.529103l8.823557 26.470669h5.317507c3.564483 0 5.317507 0 7.070532 1.753025 1.753024 0 1.753024 1.753024 3.506049 3.564482l8.88199 15.894089c14.08263 21.153161 17.530244 30.035152 31.788176 52.999771-1.811459 26.470669-3.564483 35.060488-5.317507 51.188314a196.68934 196.68934 0 0 0-3.506049 31.788176 120.140607 120.140607 0 0 1-5.317507 31.84661v1.753025l1.753024 1.753024c20.919425 1.343985 20.919425 3.389181 44.293084 7.1874l1.753024-1.753024 3.564483-58.434148v-3.506049c12.329605 26.470669 12.329605 19.400137 26.470669 52.999772v1.753025l1.753025 1.753024c19.458571 1.753024 22.96462 3.506049 45.929239 7.070532l1.753025-1.753025c-1.753024 0-88.293997-150.175759-100.682036-174.893403z m0 0M848.362012 385.519288l5.259074 15.894088h-60.187172l-5.317508-24.717644a52.590733 52.590733 0 0 0 26.470669 8.823556z m123.646656 186.989272a40.085825 40.085825 0 0 1 22.96462 31.788176c3.506049 15.894088-1.811459 26.529103-12.388039 31.84661l-30.035152 1.753025h-5.259073v-5.317508l-14.141064-61.823328v-3.330746h7.070532c10.576581 0 22.96462 0 31.788176 5.259073z m-33.599634-312.622689h33.599634l8.823557 31.788176h-33.716503z m42.423191 141.293768l-10.635015-35.060488a177.698242 177.698242 0 0 0 19.458571 7.012098 88.352431 88.352431 0 0 0 17.530244 1.811458l7.070532 26.470669z m-28.282128-90.105455a111.02488 111.02488 0 0 0 19.458571 8.88199c7.070532 1.753024 17.530244 3.506049 17.530245 3.506049l8.823556 26.470669h-33.541201z m0 0"  horiz-adv-x="1645" />

    
    <glyph glyph-name="xitongguanli" unicode="&#58930;" d="M1021.181694 71.126261H145.914445A146.280145 146.280145 0 0 0 0 217.004136V750.122125A146.280145 146.280145 0 0 0 145.914445 895.96343h875.267249a146.280145 146.280145 0 0 0 145.877874-145.841305v-533.117989a147.706377 147.706377 0 0 0-145.877874-145.877875zM145.914445 816.423601a66.338046 66.338046 0 0 1-66.338046-66.301476v-533.117989a66.338046 66.338046 0 0 1 66.338046-66.338046h875.267249a68.203118 68.203118 0 0 1 66.301475 66.338046V750.122125a66.301476 66.301476 0 0 1-66.301475 66.301476z m838.294942-944.421187h-800.883795a39.788199 39.788199 0 0 0-40.22704 39.971049 39.788199 39.788199 0 0 0 39.7882 39.7882h801.322635a39.879625 39.879625 0 0 0 0-79.759249z m0 0M238.180646 320.387629A100.78702 100.78702 0 0 1 325.473323 269.994119a100.75045 100.75045 0 0 1 87.292677 50.39351 100.86016 100.86016 0 0 1 0 100.78702A100.82359 100.82359 0 0 1 325.473323 471.568159a100.86016 100.86016 0 0 1-87.292677-50.39351 100.86016 100.86016 0 0 1 0-100.78702z m0 0"  horiz-adv-x="1167" />

    
    <glyph glyph-name="shujuguanli" unicode="&#58931;" d="M39.15107 896A39.253333 39.253333 0 0 1 0.000137 856.644267v-907.025067A77.653333 77.653333 0 0 1 77.209737-128h907.5712A39.3216 39.3216 0 0 1 1024.000137-88.576a39.3216 39.3216 0 0 1-39.2192 39.424H77.209737l1.092266 905.762133A39.253333 39.253333 0 0 1 39.15107 896zM192.000137 343.790933m3.140266 0l72.157867 0q3.140267 0 3.140267-3.140266l0-208.1792q0-3.140267-3.140267-3.140267l-72.157867 0q-3.140267 0-3.140266 3.140267l0 208.1792q0 3.140267 3.140266 3.140266ZM512.000137 558.250667m3.140266 0l72.157867 0q3.140267 0 3.140267-3.140267l0-422.6048q0-3.140267-3.140267-3.140267l-72.157867 0q-3.140267 0-3.140266 3.140267l0 422.6048q0 3.140267 3.140266 3.140267ZM832.000137 772.676267m3.140266 0l72.157867 0q3.140267 0 3.140267-3.140267l0-637.064533q0-3.140267-3.140267-3.140267l-72.157867 0q-3.140267 0-3.140266 3.140267l0 637.064533q0 3.140267 3.140266 3.140267Z"  horiz-adv-x="1024" />

    
    <glyph glyph-name="xiaoxiguanli" unicode="&#58932;" d="M273.489316 541.348114c-37.757969 0-68.255984-31.770058-68.255984-70.955197s30.498014-70.955197 68.255984-70.955197 68.255984 31.770058 68.255984 70.924172-30.591091 70.955197-68.255984 70.955197z m273.520341 0c-37.757969 0-68.255984-31.770058-68.255983-70.955197s30.653142-70.924172 68.255983-70.924172 68.255984 31.770058 68.255984 70.924172-30.591091 70.955197-68.255984 70.955197z m273.520342 0c-37.788995 0-68.411111-31.770058-68.411111-70.955197s30.622116-70.955197 68.411111-70.955197 68.255984 31.770058 68.255983 70.924172-30.591091 70.955197-68.255983 70.955197zM957.259144 895.844873H136.760171C61.213207 895.844873 0 832.428859 0 754.120631v-531.962316c0-78.339254 62.609352-150.59752 139.862715-150.59752h208.366903c36.237722-38.688733 186.711141-194.3434 186.711141-194.343401a16.567589 16.567589 0 0 1 24.137797 0s110.078286 124.815374 181.80912 194.343401h213.268923c77.253363 0 139.862715 72.227241 139.862716 150.59752V754.120631c0 78.308228-61.120131 141.724242-136.760171 141.724242z m68.411111-673.841685c0-39.18514-32.855948-80.262832-71.513656-80.262832h-209.794073c-25.440867 0-48.213545-26.123426-48.213544-26.123426l-147.246772-152.583149-147.215747 152.738276s-27.922902 26.123426-52.091725 26.123426h-209.732023c-38.657707 0-71.358528 41.077692-71.358528 80.262832V754.120631c0 39.154114 30.653142 70.924172 68.255984 70.924172h820.498973c37.788995 0 68.411111-31.770058 68.411111-70.924172z m0 0"  horiz-adv-x="1094" />

    
    <glyph glyph-name="renshiguanli" unicode="&#58933;" d="M651.118503 157.75345a31.154565 31.154565 0 0 1 31.192329-31.230091h283.223321a31.230092 31.230092 0 1 1 0 62.42242h-283.223321a31.116802 31.116802 0 0 1-31.192329-31.192329z m0 0M965.685206 61.835152h-283.223322a31.230092 31.230092 0 0 1 0-62.42242h283.223322a31.230092 31.230092 0 1 1 0 62.42242z m0 0M965.685206-65.426527h-283.223322a31.230092 31.230092 0 0 1 0-62.460184h283.223322a31.230092 31.230092 0 0 1 0 62.460184z m0 0M94.376979-51.756282c-4.909204 10.875776-6.306439 30.210488-5.853282 39.877844v0.528683c4.304994 216.760249 185.794499 393.076208 404.480666 393.076208a405.538034 405.538034 0 0 0 295.231991-128.092468h82.21029a467.809401 467.809401 0 0 1-237.907591 169.631889 257.015724 257.015724 0 1 1-279.447011 0 464.863879 464.863879 0 0 1-187.191734-111.514463A459.690333 459.690333 0 0 1 25.950224-9.650415c0-5.437888-0.830788-40.708632 11.328933-67.973597 18.126293-39.991133 63.139919-50.187173 86.553047-49.771778l462.220461-0.415394v62.384657l-462.635855 0.415394s-23.715233 0.981841-29.115358 13.103799z m203.920791 690.649511a194.593304 194.593304 0 1 0 194.744356-194.517777 194.782119 194.782119 0 0 0-194.744356 194.517777z m0 0"  horiz-adv-x="1024" />

    
    <glyph glyph-name="dianpu" unicode="&#58897;" d="M925.789091 470.341818a150.341818 150.341818 0 0 0-52.596364-113.570909 10.007273 10.007273 0 0 0 0-2.56v-276.945454a75.403636 75.403636 0 0 0-75.403636-75.403637h-553.890909a75.636364 75.636364 0 0 0-75.636364 75.403637v276.945454 2.56A150.109091 150.109091 0 0 0 116.363636 470.341818C116.363636 477.090909 116.363636 477.090909 206.429091 716.567273A64.698182 64.698182 0 0 0 264.378182 756.363636h513.396363a64.698182 64.698182 0 0 0 57.949091-40.029091C925.789091 477.090909 925.789091 477.090909 925.789091 470.341818z m-656.989091 186.181818a25.134545 25.134545 0 0 1 0-50.269091h504.32a25.134545 25.134545 0 0 1 0 50.269091z m554.589091-579.258181V327.68a148.712727 148.712727 0 0 0-50.967273-9.309091 186.181818 186.181818 0 0 0-128.698182 55.621818 164.538182 164.538182 0 0 0-121.949091-55.621818A188.509091 188.509091 0 0 0 395.636364 373.76a165.701818 165.701818 0 0 0-125.207273-55.389091 150.109091 150.109091 0 0 0-51.2 9.309091v-250.414545a25.134545 25.134545 0 0 1 25.367273-25.134546H798.254545a25.134545 25.134545 0 0 1 25.134546 25.134546z"  horiz-adv-x="1024" />

    
    <glyph glyph-name="right-copy" unicode="&#59274;" d="M706.764334 703.366701l-338.493318-334.032726L706.764334 35.30124999999998l-2.688225-2.664689c1.736551-2.856048 2.962471-5.996574 2.96247101-9.565866 0-10.63624501-8.709359-19.2269-19.48784301-19.2269-3.628644 0-6.804986 1.213641-9.68457 2.90312l-2.700505-2.664689-357.708961 353.020172 2.689249 2.664689c-1.736551 2.856048-2.963495 5.996574-2.963495 9.565866 0 3.545756 1.225921 6.709819 2.938935 9.565866l-2.689249 2.641153L675.164638 734.561168l2.700505-2.641153c2.879584 1.689479 6.055926 2.90312 9.68457 2.90312 10.778484 0 19.487843-8.614192 19.487843-19.25146 0-3.568269-1.225921-6.709819-2.938935-9.54130699L706.764334 703.366701 706.764334 703.366701zM706.764334 703.366701"  horiz-adv-x="1024" />

    
    <glyph glyph-name="huakouyeji" unicode="&#58938;" d="M915.456 433.152c-3.072 0-5.632 0.512-8.192 0.512h-298.496c-26.112 0-47.104 20.992-47.104 47.104V779.264c-0.512 2.56-0.512 5.12-0.512 7.68 0 26.112 21.504 47.104 47.104 47.616h2.56c180.736-1.024 350.72-171.52 352.256-352.256v-2.56c-1.024-25.6-22.016-46.592-47.616-46.592z m-28.672 75.776l-5.632 23.552c-24.576 103.424-117.248 196.608-221.184 220.672l-23.552 5.632v-250.368h250.368zM467.456-66.56C243.712-66.56 61.44 115.712 61.44 339.456 61.44 563.2 243.712 744.96 467.456 744.96c26.112 0 47.104-20.992 47.104-47.104v-311.296h311.296c26.112 0 47.104-20.992 47.104-47.104 0-223.744-181.76-406.016-405.504-406.016z m327.168 355.84l3.584 22.016H467.456c-15.36 0-27.648 12.288-27.648 27.648V647.168l-3.072 18.944h-19.456c-160.256-24.576-280.576-164.864-280.576-327.168 0-182.272 148.48-330.752 330.752-330.752 161.792 0.512 302.592 120.832 327.168 281.088z"  horiz-adv-x="1024" />

    
    </font>
</defs>
</svg>
